<?xml version="1.0" standalone="no"?><svg x="0" y="0" width="900" height="600" viewBox="0 0 900.000000 600.000000" xmlns="http://www.w3.org/2000/svg" xmlns:xlink="http://www.w3.org/1999/xlink" xml:space="preserve" data-reactroot=""><g transform="translate(450.000000,300.000000)"><g transform="translate(0,0)" style="opacity:1"><g transform="translate(0,0)" style="opacity:1"></g><g transform="translate(0,0)" style="opacity:1"><g transform="translate(-25,-300)" style="opacity:1"><text style="stroke:none;stroke-opacity:1;stroke-width:1;stroke-linecap:round;stroke-linejoin:round;fill:rgb(0,0,0);fill-opacity:1;text-anchor:start;opacity:1;font-family:Arial;font-size:24px" x="-15.328125" y="305.6876037290838">iris</text></g></g><g transform="translate(0,0)" style="opacity:1"><g transform="translate(0,0)" style="opacity:1"><g transform="translate(-25,-1.13475177)" style="opacity:1"><g transform="translate(0,0)" style="opacity:1"></g><g transform="translate(0,0)" style="opacity:1"><g transform="translate(0,0)" style="opacity:1"><path style="stroke:rgb(0,0,0);stroke-opacity:1;stroke-width:1;stroke-linecap:round;stroke-linejoin:miter;fill:rgb(195,195,244);fill-opacity:1;text-anchor:start;opacity:0.5;cursor:pointer;pointer-events:all" d="M -54.5613018,62.42626607 L -67.72296477,77.48517133 A 102.90943462,102.90943462,0,0,1,-77.48517133,67.72296477 L -62.42626607,54.5613018 A 82.90943462,82.90943462,0,0,0,-54.5613018,62.42626607 Z"></path></g><g transform="translate(0,0)" style="opacity:1"><path style="stroke:rgb(0,0,0);stroke-opacity:1;stroke-width:1;stroke-linecap:round;stroke-linejoin:miter;fill:rgb(195,195,244);fill-opacity:1;text-anchor:start;opacity:0.5;cursor:pointer;pointer-events:all" d="M 41.06463077,61.23485034 L 52.20392724,77.84557201 A 93.72930759,93.72930759,0,0,1,41.31427931,84.13271317 L 32.49862061,66.18043862 A 73.72930759,73.72930759,0,0,0,41.06463077,61.23485034 Z"></path></g><g transform="translate(0,0)" style="opacity:1"><path style="stroke:rgb(0,0,0);stroke-opacity:1;stroke-width:1;stroke-linecap:round;stroke-linejoin:miter;fill:rgb(195,195,244);fill-opacity:1;text-anchor:start;opacity:0.5;cursor:pointer;pointer-events:all" d="M 4.37771958,65.11647718 L 5.62344726,83.64607841 A 83.83489484,83.83489484,0,0,1,-5.62344726,83.64607841 L -4.37771958,65.11647718 A 65.26346627,65.26346627,0,0,0,4.37771958,65.11647718 Z"></path></g><g transform="translate(0,0)" style="opacity:1"><path style="stroke:rgb(0,0,0);stroke-opacity:1;stroke-width:1;stroke-linecap:round;stroke-linejoin:miter;fill:rgb(195,195,244);fill-opacity:1;text-anchor:start;opacity:0.5;cursor:pointer;pointer-events:all" d="M 19.13774833,56.06867777 L 26.05978014,76.34844969 A 80.67340275,80.67340275,0,0,1,15.60579323,79.14958705 L 11.46056266,58.12577347 A 59.24483132,59.24483132,0,0,0,19.13774833,56.06867777 Z"></path></g><g transform="translate(0,0)" style="opacity:1"><path style="stroke:rgb(0,0,0);stroke-opacity:1;stroke-width:1;stroke-linecap:round;stroke-linejoin:miter;fill:rgb(195,195,244);fill-opacity:1;text-anchor:start;opacity:0.5;cursor:pointer;pointer-events:all" d="M -65.04706372,43.62113469 L -81.65778538,54.76043116 A 98.3193711,98.3193711,0,0,1,-88.2528172,43.33750098 L -70.30054264,34.52184228 A 78.3193711,78.3193711,0,0,0,-65.04706372,43.62113469 Z"></path></g><g transform="translate(0,0)" style="opacity:1"><path style="stroke:rgb(0,0,0);stroke-opacity:1;stroke-width:1;stroke-linecap:round;stroke-linejoin:miter;fill:rgb(195,195,244);fill-opacity:1;text-anchor:start;opacity:0.5;cursor:pointer;pointer-events:all" d="M -93.76888126,-12.02486658 L -117.85733178,-15.11395541 A 118.82248231,118.82248231,0,0,1,-109.62442105,-45.83959655 L -87.21866655,-36.47060069 A 94.53676803,94.53676803,0,0,0,-93.76888126,-12.02486658 Z"></path></g><g transform="translate(0,0)" style="opacity:1"><path style="stroke:rgb(0,0,0);stroke-opacity:1;stroke-width:1;stroke-linecap:round;stroke-linejoin:miter;fill:rgb(195,195,244);fill-opacity:1;text-anchor:start;opacity:0.5;cursor:pointer;pointer-events:all" d="M -24.60798944,54.67670959 L -32.81624555,72.91470651 A 79.95911704,79.95911704,0,0,1,-46.73786538,64.87705556 L -35.04742478,48.64949878 A 59.95911704,59.95911704,0,0,0,-24.60798944,54.67670959 Z"></path></g><g transform="translate(0,0)" style="opacity:1"><path style="stroke:rgb(0,0,0);stroke-opacity:1;stroke-width:1;stroke-linecap:round;stroke-linejoin:miter;fill:rgb(195,195,244);fill-opacity:1;text-anchor:start;opacity:0.5;cursor:pointer;pointer-events:all" d="M -34.20699732,69.65938998 L -43.65234593,88.89396986 A 99.03365682,99.03365682,0,0,1,-55.15826317,82.25102544 L -43.22330267,64.45382366 A 77.60508539,77.60508539,0,0,0,-34.20699732,69.65938998 Z"></path></g><g transform="translate(0,0)" style="opacity:1"><path style="stroke:rgb(0,0,0);stroke-opacity:1;stroke-width:1;stroke-linecap:round;stroke-linejoin:miter;fill:rgb(195,195,244);fill-opacity:1;text-anchor:start;opacity:0.5;cursor:pointer;pointer-events:all" d="M 38.23379999,33.41679763 L 53.29270526,46.57846061 A 70.77899001,70.77899001,0,0,1,46.57846061,53.29270526 L 33.41679763,38.23379999 A 50.77899001,50.77899001,0,0,0,38.23379999,33.41679763 Z"></path></g><g transform="translate(0,0)" style="opacity:1"><path style="stroke:rgb(0,0,0);stroke-opacity:1;stroke-width:1;stroke-linecap:round;stroke-linejoin:miter;fill:rgb(195,195,244);fill-opacity:1;text-anchor:start;opacity:0.5;cursor:pointer;pointer-events:all" d="M 21.25376341,69.85321009 L 27.49135364,90.35384768 A 94.4435933,94.4435933,0,0,1,21.36871321,91.99440424 L 16.52030601,71.12153618 A 73.01502187,73.01502187,0,0,0,21.25376341,69.85321009 Z"></path></g><g transform="translate(0,0)" style="opacity:1"><path style="stroke:rgb(0,0,0);stroke-opacity:1;stroke-width:1;stroke-linecap:round;stroke-linejoin:miter;fill:rgb(195,195,244);fill-opacity:1;text-anchor:start;opacity:0.5;cursor:pointer;pointer-events:all" d="M -90.82057582,30.99950618 L -111.10034774,37.92153799 A 117.39391088,117.39391088,0,0,1,-115.17649251,22.70915862 L -94.15267894,18.56392805 A 95.96533946,95.96533946,0,0,0,-90.82057582,30.99950618 Z"></path></g><g transform="translate(0,0)" style="opacity:1"><path style="stroke:rgb(0,0,0);stroke-opacity:1;stroke-width:1;stroke-linecap:round;stroke-linejoin:miter;fill:rgb(195,195,244);fill-opacity:1;text-anchor:start;opacity:0.5;cursor:pointer;pointer-events:all" d="M -29.84570903,60.77802927 L -39.92074755,81.29491447 A 90.5678155,90.5678155,0,0,1,-50.44308736,75.21983875 L -37.71246283,56.23615685 A 67.71067264,67.71067264,0,0,0,-29.84570903,60.77802927 Z"></path></g><g transform="translate(0,0)" style="opacity:1"><path style="stroke:rgb(0,0,0);stroke-opacity:1;stroke-width:1;stroke-linecap:round;stroke-linejoin:miter;fill:rgb(195,195,244);fill-opacity:1;text-anchor:start;opacity:0.5;cursor:pointer;pointer-events:all" d="M 36.55946543,58.68254049 L 47.13507005,75.6577161 A 89.13924407,89.13924407,0,0,1,41.95396911,78.64902612 L 32.5408381,61.00269606 A 69.13924407,69.13924407,0,0,0,36.55946543,58.68254049 Z"></path></g><g transform="translate(0,0)" style="opacity:1"><path style="stroke:rgb(0,0,0);stroke-opacity:1;stroke-width:1;stroke-linecap:round;stroke-linejoin:miter;fill:rgb(195,195,244);fill-opacity:1;text-anchor:start;opacity:0.5;cursor:pointer;pointer-events:all" d="M 25.5568917,41.02202574 L 33.86629533,54.35966372 A 64.04606935,64.04606935,0,0,1,30.14370206,56.50890394 L 22.74767055,42.64393032 A 48.33178363,48.33178363,0,0,0,25.5568917,41.02202574 Z"></path></g><g transform="translate(0,0)" style="opacity:1"><path style="stroke:rgb(0,0,0);stroke-opacity:1;stroke-width:1;stroke-linecap:round;stroke-linejoin:miter;fill:rgb(195,195,244);fill-opacity:1;text-anchor:start;opacity:0.5;cursor:pointer;pointer-events:all" d="M -104.54368015,-51.33730554 L -119.93134405,-58.89358443 A 133.61130781,133.61130781,0,0,1,-110.96901226,-74.41679845 L -96.73125084,-64.86883005 A 116.46845066,116.46845066,0,0,0,-104.54368015,-51.33730554 Z"></path></g><g transform="translate(0,0)" style="opacity:1"><path style="stroke:rgb(0,0,0);stroke-opacity:1;stroke-width:1;stroke-linecap:round;stroke-linejoin:miter;fill:rgb(195,195,244);fill-opacity:1;text-anchor:start;opacity:0.5;cursor:pointer;pointer-events:all" d="M -14.68844512,-108.74803964 L -17.55672666,-129.98377919 A 131.16410143,131.16410143,0,0,1,17.55672666,-129.98377919 L 14.68844512,-108.74803964 A 109.73553,109.73553,0,0,0,-14.68844512,-108.74803964 Z"></path></g><g transform="translate(0,0)" style="opacity:1"><path style="stroke:rgb(0,0,0);stroke-opacity:1;stroke-width:1;stroke-linecap:round;stroke-linejoin:miter;fill:rgb(195,195,244);fill-opacity:1;text-anchor:start;opacity:0.5;cursor:pointer;pointer-events:all" d="M -96.60281661,-12.3882888 L -115.02339643,-14.75053319 A 115.96533946,115.96533946,0,0,1,-106.98844993,-44.73736175 L -89.85463766,-37.5728355 A 97.39391088,97.39391088,0,0,0,-96.60281661,-12.3882888 Z"></path></g><g transform="translate(0,0)" style="opacity:1"><path style="stroke:rgb(0,0,0);stroke-opacity:1;stroke-width:1;stroke-linecap:round;stroke-linejoin:miter;fill:rgb(195,195,244);fill-opacity:1;text-anchor:start;opacity:0.5;cursor:pointer;pointer-events:all" d="M -52.43568852,64.22205944 L -65.08459603,79.71415868 A 102.90943462,102.90943462,0,0,1,-79.71415868,65.08459603 L -64.22205944,52.43568852 A 82.90943462,82.90943462,0,0,0,-52.43568852,64.22205944 Z"></path></g><g transform="translate(0,0)" style="opacity:1"><path style="stroke:rgb(0,0,0);stroke-opacity:1;stroke-width:1;stroke-linecap:round;stroke-linejoin:miter;fill:rgb(195,195,244);fill-opacity:1;text-anchor:start;opacity:0.5;cursor:pointer;pointer-events:all" d="M -107.75836597,10.8872329 L -131.9210691,13.32848165 A 132.59267286,132.59267286,0,0,1,-131.9210691,-13.32848165 L -107.75836597,-10.8872329 A 108.30695858,108.30695858,0,0,0,-107.75836597,10.8872329 Z"></path></g><g transform="translate(0,0)" style="opacity:1"><path style="stroke:rgb(0,0,0);stroke-opacity:1;stroke-width:1;stroke-linecap:round;stroke-linejoin:miter;fill:rgb(195,195,244);fill-opacity:1;text-anchor:start;opacity:0.5;cursor:pointer;pointer-events:all" d="M -81.77881692,8.26242137 L -103.0988491,10.41646439 A 103.62372033,103.62372033,0,0,1,-103.0988491,-10.41646439 L -81.77881692,-8.26242137 A 82.19514891,82.19514891,0,0,0,-81.77881692,8.26242137 Z"></path></g><g transform="translate(0,0)" style="opacity:1"><path style="stroke:rgb(0,0,0);stroke-opacity:1;stroke-width:1;stroke-linecap:round;stroke-linejoin:miter;fill:rgb(195,195,244);fill-opacity:1;text-anchor:start;opacity:0.5;cursor:pointer;pointer-events:all" d="M -41.67019409,84.85750075 L -52.37492252,106.65669128 A 118.82248231,118.82248231,0,0,1,-66.17994287,98.68635906 L -52.6536543,78.51619704 A 94.53676803,94.53676803,0,0,0,-41.67019409,84.85750075 Z"></path></g><g transform="translate(0,0)" style="opacity:1"><path style="stroke:rgb(0,0,0);stroke-opacity:1;stroke-width:1;stroke-linecap:round;stroke-linejoin:miter;fill:rgb(195,195,244);fill-opacity:1;text-anchor:start;opacity:0.5;cursor:pointer;pointer-events:all" d="M -75.8324135,31.70942393 L -95.60219689,39.97618499 A 103.62372033,103.62372033,0,0,1,-102.78202366,13.1807067 L -81.52750849,10.45504008 A 82.19514891,82.19514891,0,0,0,-75.8324135,31.70942393 Z"></path></g><g transform="translate(0,0)" style="opacity:1"><path style="stroke:rgb(0,0,0);stroke-opacity:1;stroke-width:1;stroke-linecap:round;stroke-linejoin:miter;fill:rgb(195,195,244);fill-opacity:1;text-anchor:start;opacity:0.5;cursor:pointer;pointer-events:all" d="M -52.17117046,34.98644709 L -64.03597165,42.94308743 A 77.10197418,77.10197418,0,0,1,-69.20779045,33.98523449 L -56.3847372,27.68833541 A 62.8162599,62.8162599,0,0,0,-52.17117046,34.98644709 Z"></path></g><g transform="translate(0,0)" style="opacity:1"><path style="stroke:rgb(0,0,0);stroke-opacity:1;stroke-width:1;stroke-linecap:round;stroke-linejoin:miter;fill:rgb(195,195,244);fill-opacity:1;text-anchor:start;opacity:0.5;cursor:pointer;pointer-events:all" d="M -7.57921554,80.41017056 L -9.858211,104.58871679 A 105.05229176,105.05229176,0,0,1,-43.75689724,95.50559119 L -33.64129208,73.4268582 A 80.76657748,80.76657748,0,0,0,-7.57921554,80.41017056 Z"></path></g><g transform="translate(0,0)" style="opacity:1"><path style="stroke:rgb(0,0,0);stroke-opacity:1;stroke-width:1;stroke-linecap:round;stroke-linejoin:miter;fill:rgb(195,195,244);fill-opacity:1;text-anchor:start;opacity:0.5;cursor:pointer;pointer-events:all" d="M -28.90117417,58.85457128 L -40.86528241,83.21837246 A 92.71067264,92.71067264,0,0,1,-51.63658341,76.99955893 L -36.51896678,54.45643667 A 65.5678155,65.5678155,0,0,0,-28.90117417,58.85457128 Z"></path></g><g transform="translate(0,0)" style="opacity:1"><path style="stroke:rgb(0,0,0);stroke-opacity:1;stroke-width:1;stroke-linecap:round;stroke-linejoin:miter;fill:rgb(195,195,244);fill-opacity:1;text-anchor:start;opacity:0.5;cursor:pointer;pointer-events:all" d="M 42.82547066,63.8605836 L 55.55609519,82.8442655 A 99.74794253,99.74794253,0,0,1,43.96719089,89.53512252 L 33.89215237,69.01823732 A 76.89079968,76.89079968,0,0,0,42.82547066,63.8605836 Z"></path></g><g transform="translate(0,0)" style="opacity:1"><path style="stroke:rgb(0,0,0);stroke-opacity:1;stroke-width:1;stroke-linecap:round;stroke-linejoin:miter;fill:rgb(195,195,244);fill-opacity:1;text-anchor:start;opacity:0.5;cursor:pointer;pointer-events:all" d="M -29.18623828,71.13619732 L -37.86236105,92.2826834 A 99.74794253,99.74794253,0,0,1,-60.98796763,78.93110821 L -47.01263487,60.84412245 A 76.89079968,76.89079968,0,0,0,-29.18623828,71.13619732 Z"></path></g><g transform="translate(0,0)" style="opacity:1"><path style="stroke:rgb(0,0,0);stroke-opacity:1;stroke-width:1;stroke-linecap:round;stroke-linejoin:miter;fill:rgb(195,195,244);fill-opacity:1;text-anchor:start;opacity:0.5;cursor:pointer;pointer-events:all" d="M -57.11188586,65.34451461 L -71.21366761,81.47905596 A 108.21378385,108.21378385,0,0,1,-81.47905596,71.21366761 L -65.34451461,57.11188586 A 86.78521242,86.78521242,0,0,0,-57.11188586,65.34451461 Z"></path></g><g transform="translate(0,0)" style="opacity:1"><path style="stroke:rgb(0,0,0);stroke-opacity:1;stroke-width:1;stroke-linecap:round;stroke-linejoin:miter;fill:rgb(195,195,244);fill-opacity:1;text-anchor:start;opacity:0.5;cursor:pointer;pointer-events:all" d="M -38.56828562,78.54075069 L -47.38394432,96.49302524 A 107.49949814,107.49949814,0,0,1,-59.87343899,89.28221213 L -48.73414252,72.67149047 A 87.49949814,87.49949814,0,0,0,-38.56828562,78.54075069 Z"></path></g><g transform="translate(0,0)" style="opacity:1"><path style="stroke:rgb(0,0,0);stroke-opacity:1;stroke-width:1;stroke-linecap:round;stroke-linejoin:miter;fill:rgb(195,195,244);fill-opacity:1;text-anchor:start;opacity:0.5;cursor:pointer;pointer-events:all" d="M 4.23398177,62.97844627 L 5.76718507,85.78410932 A 85.97775198,85.97775198,0,0,1,-5.76718507,85.78410932 L -4.23398177,62.97844627 A 63.12060913,63.12060913,0,0,0,4.23398177,62.97844627 Z"></path></g><g transform="translate(0,0)" style="opacity:1"><path style="stroke:rgb(0,0,0);stroke-opacity:1;stroke-width:1;stroke-linecap:round;stroke-linejoin:miter;fill:rgb(195,195,244);fill-opacity:1;text-anchor:start;opacity:0.5;cursor:pointer;pointer-events:all" d="M 21.8724534,64.08065989 L 29.255954,85.7124166 A 90.5678155,90.5678155,0,0,1,17.51980893,88.8571072 L 13.09822966,66.43170606 A 67.71067264,67.71067264,0,0,0,21.8724534,64.08065989 Z"></path></g><g transform="translate(0,0)" style="opacity:1"><path style="stroke:rgb(0,0,0);stroke-opacity:1;stroke-width:1;stroke-linecap:round;stroke-linejoin:miter;fill:rgb(195,195,244);fill-opacity:1;text-anchor:start;opacity:0.5;cursor:pointer;pointer-events:all" d="M -36.42655917,88.783175 L -44.56042426,108.6080057 A 117.39391088,117.39391088,0,0,1,-71.77707986,92.89446227 L -58.6752054,75.93791311 A 95.96533946,95.96533946,0,0,0,-36.42655917,88.783175 Z"></path></g><g transform="translate(0,0)" style="opacity:1"><path style="stroke:rgb(0,0,0);stroke-opacity:1;stroke-width:1;stroke-linecap:round;stroke-linejoin:miter;fill:rgb(195,195,244);fill-opacity:1;text-anchor:start;opacity:0.5;cursor:pointer;pointer-events:all" d="M -63.39116652,-59.27253245 L -79.04339691,-73.90781028 A 108.21378385,108.21378385,0,0,1,-73.90781028,-79.04339691 L -59.27253245,-63.39116652 A 86.78521242,86.78521242,0,0,0,-63.39116652,-59.27253245 Z"></path></g><g transform="translate(0,0)" style="opacity:1"><path style="stroke:rgb(0,0,0);stroke-opacity:1;stroke-width:1;stroke-linecap:round;stroke-linejoin:miter;fill:rgb(195,195,244);fill-opacity:1;text-anchor:start;opacity:0.5;cursor:pointer;pointer-events:all" d="M -56.40365427,-84.10813059 L -67.54295073,-100.71885226 A 121.26968869,121.26968869,0,0,1,-53.45360933,-108.85333731 L -44.63795062,-90.90106276 A 101.26968869,101.26968869,0,0,0,-56.40365427,-84.10813059 Z"></path></g><g transform="translate(0,0)" style="opacity:1"><path style="stroke:rgb(0,0,0);stroke-opacity:1;stroke-width:1;stroke-linecap:round;stroke-linejoin:miter;fill:rgb(195,195,244);fill-opacity:1;text-anchor:start;opacity:0.5;cursor:pointer;pointer-events:all" d="M 21.25376341,69.85321009 L 27.49135364,90.35384768 A 94.4435933,94.4435933,0,0,1,21.36871321,91.99440424 L 16.52030601,71.12153618 A 73.01502187,73.01502187,0,0,0,21.25376341,69.85321009 Z"></path></g><g transform="translate(0,0)" style="opacity:1"><path style="stroke:rgb(0,0,0);stroke-opacity:1;stroke-width:1;stroke-linecap:round;stroke-linejoin:miter;fill:rgb(195,195,244);fill-opacity:1;text-anchor:start;opacity:0.5;cursor:pointer;pointer-events:all" d="M 5.34930413,79.56833091 L 6.49920661,96.6725782 A 96.89079968,96.89079968,0,0,1,-6.49920661,96.6725782 L -5.34930413,79.56833091 A 79.74794253,79.74794253,0,0,0,5.34930413,79.56833091 Z"></path></g><g transform="translate(0,0)" style="opacity:1"><path style="stroke:rgb(0,0,0);stroke-opacity:1;stroke-width:1;stroke-linecap:round;stroke-linejoin:miter;fill:rgb(195,195,244);fill-opacity:1;text-anchor:start;opacity:0.5;cursor:pointer;pointer-events:all" d="M -67.11393499,76.78835044 L -79.33547919,90.77161962 A 120.55540297,120.55540297,0,0,1,-90.77161962,79.33547919 L -76.78835044,67.11393499 A 101.9839744,101.9839744,0,0,0,-67.11393499,76.78835044 Z"></path></g><g transform="translate(0,0)" style="opacity:1"><path style="stroke:rgb(0,0,0);stroke-opacity:1;stroke-width:1;stroke-linecap:round;stroke-linejoin:miter;fill:rgb(195,195,244);fill-opacity:1;text-anchor:start;opacity:0.5;cursor:pointer;pointer-events:all" d="M 21.25376341,69.85321009 L 27.49135364,90.35384768 A 94.4435933,94.4435933,0,0,1,21.36871321,91.99440424 L 16.52030601,71.12153618 A 73.01502187,73.01502187,0,0,0,21.25376341,69.85321009 Z"></path></g><g transform="translate(0,0)" style="opacity:1"><path style="stroke:rgb(0,0,0);stroke-opacity:1;stroke-width:1;stroke-linecap:round;stroke-linejoin:miter;fill:rgb(195,195,244);fill-opacity:1;text-anchor:start;opacity:0.5;cursor:pointer;pointer-events:all" d="M 28.67994321,42.76702353 L 39.02357565,58.19126508 A 70.06470429,70.06470429,0,0,1,30.88332601,62.89104039 L 22.69735721,46.22107117 A 51.49327572,51.49327572,0,0,0,28.67994321,42.76702353 Z"></path></g><g transform="translate(0,0)" style="opacity:1"><path style="stroke:rgb(0,0,0);stroke-opacity:1;stroke-width:1;stroke-linecap:round;stroke-linejoin:miter;fill:rgb(195,195,244);fill-opacity:1;text-anchor:start;opacity:0.5;cursor:pointer;pointer-events:all" d="M -36.23021899,73.779494 L -45.6755676,93.01407388 A 103.62372033,103.62372033,0,0,1,-57.71476709,86.06323882 L -45.77980659,68.26603703 A 82.19514891,82.19514891,0,0,0,-36.23021899,73.779494 Z"></path></g><g transform="translate(0,0)" style="opacity:1"><path style="stroke:rgb(0,0,0);stroke-opacity:1;stroke-width:1;stroke-linecap:round;stroke-linejoin:miter;fill:rgb(195,195,244);fill-opacity:1;text-anchor:start;opacity:0.5;cursor:pointer;pointer-events:all" d="M -49.98447077,61.21986272 L -61.72988489,75.60538344 A 97.60508539,97.60508539,0,0,1,-75.60538344,61.72988489 L -61.21986272,49.98447077 A 79.03365682,79.03365682,0,0,0,-49.98447077,61.21986272 Z"></path></g><g transform="translate(0,0)" style="opacity:1"><path style="stroke:rgb(0,0,0);stroke-opacity:1;stroke-width:1;stroke-linecap:round;stroke-linejoin:miter;fill:rgb(195,195,244);fill-opacity:1;text-anchor:start;opacity:0.5;cursor:pointer;pointer-events:all" d="M 35.46964855,-43.44243285 L 47.21506267,-57.82795357 A 74.65476781,74.65476781,0,0,1,57.82795357,-47.21506267 L 43.44243285,-35.46964855 A 56.08333924,56.08333924,0,0,0,35.46964855,-43.44243285 Z"></path></g><g transform="translate(0,0)" style="opacity:1"><path style="stroke:rgb(0,0,0);stroke-opacity:1;stroke-width:1;stroke-linecap:round;stroke-linejoin:miter;fill:rgb(195,195,244);fill-opacity:1;text-anchor:start;opacity:0.5;cursor:pointer;pointer-events:all" d="M 3.45404764,51.37730043 L 4.69977532,69.90690166 A 70.06470429,70.06470429,0,0,1,-4.69977532,69.90690166 L -3.45404764,51.37730043 A 51.49327572,51.49327572,0,0,0,3.45404764,51.37730043 Z"></path></g><g transform="translate(0,0)" style="opacity:1"><path style="stroke:rgb(0,0,0);stroke-opacity:1;stroke-width:1;stroke-linecap:round;stroke-linejoin:miter;fill:rgb(195,195,244);fill-opacity:1;text-anchor:start;opacity:0.5;cursor:pointer;pointer-events:all" d="M -42.39582535,64.14662164 L -54.99873026,83.21533338 A 99.74794253,99.74794253,0,0,1,-83.21533338,54.99873026 L -64.14662164,42.39582535 A 76.89079968,76.89079968,0,0,0,-42.39582535,64.14662164 Z"></path></g><g transform="translate(0,0)" style="opacity:1"><path style="stroke:rgb(0,0,0);stroke-opacity:1;stroke-width:1;stroke-linecap:round;stroke-linejoin:miter;fill:rgb(195,195,244);fill-opacity:1;text-anchor:start;opacity:0.5;cursor:pointer;pointer-events:all" d="M -78.62405755,10.61964113 L -105.52266099,14.25279775 A 106.48086319,106.48086319,0,0,1,-105.52266099,-14.25279775 L -78.62405755,-10.61964113 A 79.33800605,79.33800605,0,0,0,-78.62405755,10.61964113 Z"></path></g><g transform="translate(0,0)" style="opacity:1"><path style="stroke:rgb(0,0,0);stroke-opacity:1;stroke-width:1;stroke-linecap:round;stroke-linejoin:miter;fill:rgb(195,195,244);fill-opacity:1;text-anchor:start;opacity:0.5;cursor:pointer;pointer-events:all" d="M 40.41341127,56.09805041 L 52.10385186,72.32560718 A 89.13924407,89.13924407,0,0,1,36.58388724,81.28606294 L 28.37563113,63.04806602 A 69.13924407,69.13924407,0,0,0,40.41341127,56.09805041 Z"></path></g><g transform="translate(0,0)" style="opacity:1"><path style="stroke:rgb(0,0,0);stroke-opacity:1;stroke-width:1;stroke-linecap:round;stroke-linejoin:miter;fill:rgb(195,195,244);fill-opacity:1;text-anchor:start;opacity:0.5;cursor:pointer;pointer-events:all" d="M -81.29734861,5.46554437 L -104.10301166,6.99874767 A 104.33800605,104.33800605,0,0,1,-104.10301166,-6.99874767 L -81.29734861,-5.46554437 A 81.48086319,81.48086319,0,0,0,-81.29734861,5.46554437 Z"></path></g><g transform="translate(0,0)" style="opacity:1"><path style="stroke:rgb(0,0,0);stroke-opacity:1;stroke-width:1;stroke-linecap:round;stroke-linejoin:miter;fill:rgb(195,195,244);fill-opacity:1;text-anchor:start;opacity:0.5;cursor:pointer;pointer-events:all" d="M 4.02191633,59.82407463 L 5.36346922,79.7790298 A 79.95911704,79.95911704,0,0,1,-5.36346922,79.7790298 L -4.02191633,59.82407463 A 59.95911704,59.95911704,0,0,0,4.02191633,59.82407463 Z"></path></g><g transform="translate(0,0)" style="opacity:1"><path style="stroke:rgb(0,0,0);stroke-opacity:1;stroke-width:1;stroke-linecap:round;stroke-linejoin:miter;fill:rgb(195,195,244);fill-opacity:1;text-anchor:start;opacity:0.5;cursor:pointer;pointer-events:all" d="M -86.47658857,29.51678645 L -106.75636049,36.43881826 A 112.80384737,112.80384737,0,0,1,-110.67312933,21.82123794 L -89.64931576,17.67600738 A 91.37527594,91.37527594,0,0,0,-86.47658857,29.51678645 Z"></path></g><g transform="translate(0,0)" style="opacity:1"><path style="stroke:rgb(0,0,0);stroke-opacity:1;stroke-width:1;stroke-linecap:round;stroke-linejoin:miter;fill:rgb(195,195,244);fill-opacity:1;text-anchor:start;opacity:0.5;cursor:pointer;pointer-events:all" d="M -15.15041971,76.84001999 L -19.01930157,96.46224599 A 98.3193711,98.3193711,0,0,1,-31.75992467,93.04840632 L -25.29936165,74.1206192 A 78.3193711,78.3193711,0,0,0,-15.15041971,76.84001999 Z"></path></g><g transform="translate(0,0)" style="opacity:1"><path style="stroke:rgb(0,0,0);stroke-opacity:1;stroke-width:1;stroke-linecap:round;stroke-linejoin:miter;fill:rgb(255,140,140);fill-opacity:1;text-anchor:start;opacity:0.5;cursor:pointer;pointer-events:all" d="M 66.35658383,130.66551027 L 96.75845731,190.53110434 A 213.69207,213.69207,0,0,1,-96.75845731,190.53110434 L -66.35658383,130.66551027 A 146.54921286,146.54921286,0,0,0,66.35658383,130.66551027 Z"></path></g><g transform="translate(0,0)" style="opacity:1"><path style="stroke:rgb(0,0,0);stroke-opacity:1;stroke-width:1;stroke-linecap:round;stroke-linejoin:miter;fill:rgb(255,140,140);fill-opacity:1;text-anchor:start;opacity:0.5;cursor:pointer;pointer-events:all" d="M 58.10615906,105.49332854 L 89.12140716,161.80236375 A 184.72311748,184.72311748,0,0,1,-89.12140716,161.80236375 L -58.10615906,105.49332854 A 120.43740319,120.43740319,0,0,0,58.10615906,105.49332854 Z"></path></g><g transform="translate(0,0)" style="opacity:1"><path style="stroke:rgb(0,0,0);stroke-opacity:1;stroke-width:1;stroke-linecap:round;stroke-linejoin:miter;fill:rgb(255,140,140);fill-opacity:1;text-anchor:start;opacity:0.5;cursor:pointer;pointer-events:all" d="M 97.34895373,101.35099672 L 145.83965848,151.83516803 A 210.53057792,210.53057792,0,0,1,-50.38326511,204.41294194 L -33.63116861,136.44701473 A 140.53057792,140.53057792,0,0,0,97.34895373,101.35099672 Z"></path></g><g transform="translate(0,0)" style="opacity:1"><path style="stroke:rgb(0,0,0);stroke-opacity:1;stroke-width:1;stroke-linecap:round;stroke-linejoin:miter;fill:rgb(255,140,140);fill-opacity:1;text-anchor:start;opacity:0.5;cursor:pointer;pointer-events:all" d="M 28.28447078,-77.71094478 L 47.82847897,-131.40766597 A 139.84111726,139.84111726,0,0,1,131.40766597,-47.82847897 L 77.71094478,-28.28447078 A 82.69826011,82.69826011,0,0,0,28.28447078,-77.71094478 Z"></path></g><g transform="translate(0,0)" style="opacity:1"><path style="stroke:rgb(0,0,0);stroke-opacity:1;stroke-width:1;stroke-linecap:round;stroke-linejoin:miter;fill:rgb(255,140,140);fill-opacity:1;text-anchor:start;opacity:0.5;cursor:pointer;pointer-events:all" d="M 124.28797388,2.50330115 L 189.98893464,3.82659322 A 190.02746671,190.02746671,0,0,1,98.30839426,162.62194723 L 64.31190933,106.38489219 A 124.31318099,124.31318099,0,0,0,124.28797388,2.50330115 Z"></path></g><g transform="translate(0,0)" style="opacity:1"><path style="stroke:rgb(0,0,0);stroke-opacity:1;stroke-width:1;stroke-linecap:round;stroke-linejoin:miter;fill:rgb(255,140,140);fill-opacity:1;text-anchor:start;opacity:0.5;cursor:pointer;pointer-events:all" d="M 87.97092394,7.69645856 L 152.01201167,13.29932774 A 152.59267286,152.59267286,0,0,1,87.52356151,124.99659992 L 50.6507906,72.33682564 A 88.30695858,88.30695858,0,0,0,87.97092394,7.69645856 Z"></path></g><g transform="translate(0,0)" style="opacity:1"><path style="stroke:rgb(0,0,0);stroke-opacity:1;stroke-width:1;stroke-linecap:round;stroke-linejoin:miter;fill:rgb(255,140,140);fill-opacity:1;text-anchor:start;opacity:0.5;cursor:pointer;pointer-events:all" d="M 31.09484187,110.11251217 L 49.34181793,174.72838584 A 181.56162539,181.56162539,0,0,1,-130.09546071,126.64831193 L -81.98517907,79.81281188 A 114.41876825,114.41876825,0,0,0,31.09484187,110.11251217 Z"></path></g><g transform="translate(0,0)" style="opacity:1"><path style="stroke:rgb(0,0,0);stroke-opacity:1;stroke-width:1;stroke-linecap:round;stroke-linejoin:miter;fill:rgb(255,140,140);fill-opacity:1;text-anchor:start;opacity:0.5;cursor:pointer;pointer-events:all" d="M 39.2839363,-45.56031997 L 70.06888131,-81.26376715 A 107.30073616,107.30073616,0,0,1,105.41092742,-20.04954765 L 59.09836265,-11.24072681 A 60.15787902,60.15787902,0,0,0,39.2839363,-45.56031997 Z"></path></g><g transform="translate(0,0)" style="opacity:1"><path style="stroke:rgb(0,0,0);stroke-opacity:1;stroke-width:1;stroke-linecap:round;stroke-linejoin:miter;fill:rgb(255,140,140);fill-opacity:1;text-anchor:start;opacity:0.5;cursor:pointer;pointer-events:all" d="M 121.12942766,44.08750616 L 182.88065703,66.56311558 A 194.61753022,194.61753022,0,0,1,66.56311558,182.88065703 L 44.08750616,121.12942766 A 128.90324451,128.90324451,0,0,0,121.12942766,44.08750616 Z"></path></g><g transform="translate(0,0)" style="opacity:1"><path style="stroke:rgb(0,0,0);stroke-opacity:1;stroke-width:1;stroke-linecap:round;stroke-linejoin:miter;fill:rgb(255,140,140);fill-opacity:1;text-anchor:start;opacity:0.5;cursor:pointer;pointer-events:all" d="M 68.13988089,-14.38799089 L 122.65217842,-25.89846655 A 125.35664099,125.35664099,0,0,1,93.27066907,83.75481916 L 51.81687241,46.53030606 A 69.64235528,69.64235528,0,0,0,68.13988089,-14.38799089 Z"></path></g><g transform="translate(0,0)" style="opacity:1"><path style="stroke:rgb(0,0,0);stroke-opacity:1;stroke-width:1;stroke-linecap:round;stroke-linejoin:miter;fill:rgb(255,140,140);fill-opacity:1;text-anchor:start;opacity:0.5;cursor:pointer;pointer-events:all" d="M -20.85573886,-59.78612643 L -37.32442648,-106.99610766 A 113.3193711,113.3193711,0,0,1,37.32442648,-106.99610766 L 20.85573886,-59.78612643 A 63.3193711,63.3193711,0,0,0,-20.85573886,-59.78612643 Z"></path></g><g transform="translate(0,0)" style="opacity:1"><path style="stroke:rgb(0,0,0);stroke-opacity:1;stroke-width:1;stroke-linecap:round;stroke-linejoin:miter;fill:rgb(255,140,140);fill-opacity:1;text-anchor:start;opacity:0.5;cursor:pointer;pointer-events:all" d="M 85.26143917,51.54233681 L 136.60831551,82.58260566 A 159.62994275,159.62994275,0,0,1,3.21447666,159.59757443 L 2.00625346,99.60974069 A 99.62994275,99.62994275,0,0,0,85.26143917,51.54233681 Z"></path></g><g transform="translate(0,0)" style="opacity:1"><path style="stroke:rgb(0,0,0);stroke-opacity:1;stroke-width:1;stroke-linecap:round;stroke-linejoin:miter;fill:rgb(255,140,140);fill-opacity:1;text-anchor:start;opacity:0.5;cursor:pointer;pointer-events:all" d="M 19.74083561,-103.7878672 L 30.4181942,-159.92430934 A 162.79143484,162.79143484,0,0,1,123.28941747,-106.30508359 L 80.0125118,-68.98999873 A 105.6485777,105.6485777,0,0,0,19.74083561,-103.7878672 Z"></path></g><g transform="translate(0,0)" style="opacity:1"><path style="stroke:rgb(0,0,0);stroke-opacity:1;stroke-width:1;stroke-linecap:round;stroke-linejoin:miter;fill:rgb(255,140,140);fill-opacity:1;text-anchor:start;opacity:0.5;cursor:pointer;pointer-events:all" d="M 100.04414451,32.65487335 L 163.87288294,53.48886998 A 172.38149836,172.38149836,0,0,1,53.48886998,163.87288294 L 32.65487335,100.04414451 A 105.23864121,105.23864121,0,0,0,100.04414451,32.65487335 Z"></path></g><g transform="translate(0,0)" style="opacity:1"><path style="stroke:rgb(0,0,0);stroke-opacity:1;stroke-width:1;stroke-linecap:round;stroke-linejoin:miter;fill:rgb(255,140,140);fill-opacity:1;text-anchor:start;opacity:0.5;cursor:pointer;pointer-events:all" d="M 84.70902966,30.83156537 L 133.03607872,48.42117274 A 141.57403792,141.57403792,0,0,1,48.42117274,133.03607872 L 30.83156537,84.70902966 A 90.14546649,90.14546649,0,0,0,84.70902966,30.83156537 Z"></path></g><g transform="translate(0,0)" style="opacity:1"><path style="stroke:rgb(0,0,0);stroke-opacity:1;stroke-width:1;stroke-linecap:round;stroke-linejoin:miter;fill:rgb(255,140,140);fill-opacity:1;text-anchor:start;opacity:0.5;cursor:pointer;pointer-events:all" d="M 90.1456638,100.38761305 L 132.14255038,147.15599902 A 197.77902231,197.77902231,0,0,1,-40.86080604,193.51210866 L -27.87462837,132.01105502 A 134.92187945,134.92187945,0,0,0,90.1456638,100.38761305 Z"></path></g><g transform="translate(0,0)" style="opacity:1"><path style="stroke:rgb(0,0,0);stroke-opacity:1;stroke-width:1;stroke-linecap:round;stroke-linejoin:miter;fill:rgb(255,140,140);fill-opacity:1;text-anchor:start;opacity:0.5;cursor:pointer;pointer-events:all" d="M 71.64335097,43.3099155 L 126.65786133,76.56734641 A 148.00260935,148.00260935,0,0,1,2.98033643,147.97259871 L 1.68581158,83.6999197 A 83.71689506,83.71689506,0,0,0,71.64335097,43.3099155 Z"></path></g><g transform="translate(0,0)" style="opacity:1"><path style="stroke:rgb(0,0,0);stroke-opacity:1;stroke-width:1;stroke-linecap:round;stroke-linejoin:miter;fill:rgb(255,140,140);fill-opacity:1;text-anchor:start;opacity:0.5;cursor:pointer;pointer-events:all" d="M 95.49323511,-7.06414562 L 153.9050567,-11.38518065 A 154.32559352,154.32559352,0,0,1,127.59309855,86.81238402 L 79.16749468,53.86434712 A 95.75416495,95.75416495,0,0,0,95.49323511,-7.06414562 Z"></path></g><g transform="translate(0,0)" style="opacity:1"><path style="stroke:rgb(0,0,0);stroke-opacity:1;stroke-width:1;stroke-linecap:round;stroke-linejoin:miter;fill:rgb(255,140,140);fill-opacity:1;text-anchor:start;opacity:0.5;cursor:pointer;pointer-events:all" d="M 2.2403937,-111.23471641 L 3.53491855,-175.50739541 A 175.54299044,175.54299044,0,0,1,150.22640371,-90.81502697 L 95.21189334,-57.55759606 A 111.25727616,111.25727616,0,0,0,2.2403937,-111.23471641 Z"></path></g><g transform="translate(0,0)" style="opacity:1"><path style="stroke:rgb(0,0,0);stroke-opacity:1;stroke-width:1;stroke-linecap:round;stroke-linejoin:miter;fill:rgb(255,140,140);fill-opacity:1;text-anchor:start;opacity:0.5;cursor:pointer;pointer-events:all" d="M 71.0564577,-51.91761812 L 116.04216682,-84.78656406 A 143.71689506,143.71689506,0,0,1,142.88874641,15.40623497 L 87.49550653,9.43374735 A 88.00260935,88.00260935,0,0,0,71.0564577,-51.91761812 Z"></path></g><g transform="translate(0,0)" style="opacity:1"><path style="stroke:rgb(0,0,0);stroke-opacity:1;stroke-width:1;stroke-linecap:round;stroke-linejoin:miter;fill:rgb(255,140,140);fill-opacity:1;text-anchor:start;opacity:0.5;cursor:pointer;pointer-events:all" d="M 54.161695,78.46676173 L 93.1147062,134.89994111 A 163.91565704,163.91565704,0,0,1,-93.1147062,134.89994111 L -54.161695,78.46676173 A 95.34422847,95.34422847,0,0,0,54.161695,78.46676173 Z"></path></g><g transform="translate(0,0)" style="opacity:1"><path style="stroke:rgb(0,0,0);stroke-opacity:1;stroke-width:1;stroke-linecap:round;stroke-linejoin:miter;fill:rgb(255,140,140);fill-opacity:1;text-anchor:start;opacity:0.5;cursor:pointer;pointer-events:all" d="M 109.8191499,9.60793065 L 166.74456122,14.58825881 A 167.38149836,167.38149836,0,0,1,96.00608334,137.11089655 L 63.23028697,90.30220831 A 110.23864121,110.23864121,0,0,0,109.8191499,9.60793065 Z"></path></g><g transform="translate(0,0)" style="opacity:1"><path style="stroke:rgb(0,0,0);stroke-opacity:1;stroke-width:1;stroke-linecap:round;stroke-linejoin:miter;fill:rgb(255,140,140);fill-opacity:1;text-anchor:start;opacity:0.5;cursor:pointer;pointer-events:all" d="M 81.48880647,-78.27106104 L 131.97297778,-126.76176579 A 182.99019682,182.99019682,0,0,1,177.67283427,43.79242051 L 109.70690705,27.04032401 A 112.99019682,112.99019682,0,0,0,81.48880647,-78.27106104 Z"></path></g><g transform="translate(0,0)" style="opacity:1"><path style="stroke:rgb(0,0,0);stroke-opacity:1;stroke-width:1;stroke-linecap:round;stroke-linejoin:miter;fill:rgb(255,140,140);fill-opacity:1;text-anchor:start;opacity:0.5;cursor:pointer;pointer-events:all" d="M 104.47133303,12.68511645 L 171.12464315,20.77829355 A 172.38149836,172.38149836,0,0,1,103.55685163,137.80914141 L 63.22129961,84.13227015 A 105.23864121,105.23864121,0,0,0,104.47133303,12.68511645 Z"></path></g><g transform="translate(0,0)" style="opacity:1"><path style="stroke:rgb(0,0,0);stroke-opacity:1;stroke-width:1;stroke-linecap:round;stroke-linejoin:miter;fill:rgb(255,140,140);fill-opacity:1;text-anchor:start;opacity:0.5;cursor:pointer;pointer-events:all" d="M 114.51655707,41.68061811 L 172.24053235,62.69042691 A 183.29454605,183.29454605,0,0,1,62.69042691,172.24053235 L 41.68061811,114.51655707 A 121.86597462,121.86597462,0,0,0,114.51655707,41.68061811 Z"></path></g><g transform="translate(0,0)" style="opacity:1"><path style="stroke:rgb(0,0,0);stroke-opacity:1;stroke-width:1;stroke-linecap:round;stroke-linejoin:miter;fill:rgb(255,140,140);fill-opacity:1;text-anchor:start;opacity:0.5;cursor:pointer;pointer-events:all" d="M 109.21005954,71.13047969 L 161.8804859,105.43567747 A 193.18895879,193.18895879,0,0,1,10.3697322,192.91045191 L 6.99577262,130.14392576 A 130.33181594,130.33181594,0,0,0,109.21005954,71.13047969 Z"></path></g><g transform="translate(0,0)" style="opacity:1"><path style="stroke:rgb(0,0,0);stroke-opacity:1;stroke-width:1;stroke-linecap:round;stroke-linejoin:miter;fill:rgb(255,140,140);fill-opacity:1;text-anchor:start;opacity:0.5;cursor:pointer;pointer-events:all" d="M 136.45779453,7.3351691 L 204.93036851,11.01585228 A 205.22622868,205.22622868,0,0,1,112.00519218,171.966979 L 74.58134005,114.50833206 A 136.65480011,136.65480011,0,0,0,136.45779453,7.3351691 Z"></path></g><g transform="translate(0,0)" style="opacity:1"><path style="stroke:rgb(0,0,0);stroke-opacity:1;stroke-width:1;stroke-linecap:round;stroke-linejoin:miter;fill:rgb(255,140,140);fill-opacity:1;text-anchor:start;opacity:0.5;cursor:pointer;pointer-events:all" d="M 116.07750241,59.93180361 L 179.54576299,92.70100737 A 202.0647366,202.0647366,0,0,1,-9.49145416,201.84169558 L -6.13628679,130.4919677 A 130.63616517,130.63616517,0,0,0,116.07750241,59.93180361 Z"></path></g><g transform="translate(0,0)" style="opacity:1"><path style="stroke:rgb(0,0,0);stroke-opacity:1;stroke-width:1;stroke-linecap:round;stroke-linejoin:miter;fill:rgb(255,140,140);fill-opacity:1;text-anchor:start;opacity:0.5;cursor:pointer;pointer-events:all" d="M 98.04695052,28.39964555 L 159.79454341,46.28505395 A 166.36286341,166.36286341,0,0,1,46.28505395,159.79454341 L 28.39964555,98.04695052 A 102.07714912,102.07714912,0,0,0,98.04695052,28.39964555 Z"></path></g><g transform="translate(0,0)" style="opacity:1"><path style="stroke:rgb(0,0,0);stroke-opacity:1;stroke-width:1;stroke-linecap:round;stroke-linejoin:miter;fill:rgb(255,140,140);fill-opacity:1;text-anchor:start;opacity:0.5;cursor:pointer;pointer-events:all" d="M 90.12368018,-31.43866397 L 137.33366141,-47.90735159 A 145.44981572,145.44981572,0,0,1,137.33366141,47.90735159 L 90.12368018,31.43866397 A 95.44981572,95.44981572,0,0,0,90.12368018,-31.43866397 Z"></path></g><g transform="translate(0,0)" style="opacity:1"><path style="stroke:rgb(0,0,0);stroke-opacity:1;stroke-width:1;stroke-linecap:round;stroke-linejoin:miter;fill:rgb(255,140,140);fill-opacity:1;text-anchor:start;opacity:0.5;cursor:pointer;pointer-events:all" d="M 52.76698976,-65.52074921 L 86.81669396,-107.80025275 A 138.41254583,138.41254583,0,0,1,136.76610439,-21.28533607 L 83.12612817,-12.937179 A 84.12683154,84.12683154,0,0,0,52.76698976,-65.52074921 Z"></path></g><g transform="translate(0,0)" style="opacity:1"><path style="stroke:rgb(0,0,0);stroke-opacity:1;stroke-width:1;stroke-linecap:round;stroke-linejoin:miter;fill:rgb(255,140,140);fill-opacity:1;text-anchor:start;opacity:0.5;cursor:pointer;pointer-events:all" d="M 55.40243607,-64.254068 L 89.91888956,-104.28520575 A 137.69826011,137.69826011,0,0,1,135.2730822,-25.72943977 L 83.34687322,-15.85288307 A 84.84111726,84.84111726,0,0,0,55.40243607,-64.254068 Z"></path></g><g transform="translate(0,0)" style="opacity:1"><path style="stroke:rgb(0,0,0);stroke-opacity:1;stroke-width:1;stroke-linecap:round;stroke-linejoin:miter;fill:rgb(255,140,140);fill-opacity:1;text-anchor:start;opacity:0.5;cursor:pointer;pointer-events:all" d="M 96.21871551,-13.65441454 L 151.38033378,-21.48240932 A 152.89702209,152.89702209,0,0,1,120.35801003,94.29447909 L 76.50064468,59.93442762 A 97.18273638,97.18273638,0,0,0,96.21871551,-13.65441454 Z"></path></g><g transform="translate(0,0)" style="opacity:1"><path style="stroke:rgb(0,0,0);stroke-opacity:1;stroke-width:1;stroke-linecap:round;stroke-linejoin:miter;fill:rgb(255,140,140);fill-opacity:1;text-anchor:start;opacity:0.5;cursor:pointer;pointer-events:all" d="M 94.11096382,-26.57613999 L 164.22606078,-46.37605018 A 170.6485777,170.6485777,0,0,1,119.03591551,122.27586798 L 68.21441545,70.07109427 A 97.79143484,97.79143484,0,0,0,94.11096382,-26.57613999 Z"></path></g><g transform="translate(0,0)" style="opacity:1"><path style="stroke:rgb(0,0,0);stroke-opacity:1;stroke-width:1;stroke-linecap:round;stroke-linejoin:miter;fill:rgb(255,140,140);fill-opacity:1;text-anchor:start;opacity:0.5;cursor:pointer;pointer-events:all" d="M 63.78717017,38.56068865 L 118.80168054,71.81811956 A 138.82248231,138.82248231,0,0,1,2.79547572,138.79433314 L 1.50095087,74.52165413 A 74.53676803,74.53676803,0,0,0,63.78717017,38.56068865 Z"></path></g><g transform="translate(0,0)" style="opacity:1"><path style="stroke:rgb(0,0,0);stroke-opacity:1;stroke-width:1;stroke-linecap:round;stroke-linejoin:miter;fill:rgb(255,140,140);fill-opacity:1;text-anchor:start;opacity:0.5;cursor:pointer;pointer-events:all" d="M 1.37040679,102.06794971 L 2.23345576,166.34787043 A 166.36286341,166.36286341,0,0,1,-145.17820954,81.23970579 L -89.07864076,49.84716777 A 102.07714912,102.07714912,0,0,0,1.37040679,102.06794971 Z"></path></g><g transform="translate(0,0)" style="opacity:1"><path style="stroke:rgb(0,0,0);stroke-opacity:1;stroke-width:1;stroke-linecap:round;stroke-linejoin:miter;fill:rgb(255,140,140);fill-opacity:1;text-anchor:start;opacity:0.5;cursor:pointer;pointer-events:all" d="M 91.97926239,95.76055585 L 138.4907547,144.18414874 A 199.92187945,199.92187945,0,0,1,-47.84443739,194.11251298 L -31.77609993,128.92070524 A 132.77902231,132.77902231,0,0,0,91.97926239,95.76055585 Z"></path></g><g transform="translate(0,0)" style="opacity:1"><path style="stroke:rgb(0,0,0);stroke-opacity:1;stroke-width:1;stroke-linecap:round;stroke-linejoin:miter;fill:rgb(255,140,140);fill-opacity:1;text-anchor:start;opacity:0.5;cursor:pointer;pointer-events:all" d="M 39.86642382,-109.53209924 L 61.36483283,-168.59849255 A 179.41876825,179.41876825,0,0,1,168.59849255,-61.36483283 L 109.53209924,-39.86642382 A 116.56162539,116.56162539,0,0,0,39.86642382,-109.53209924 Z"></path></g><g transform="translate(0,0)" style="opacity:1"><path style="stroke:rgb(0,0,0);stroke-opacity:1;stroke-width:1;stroke-linecap:round;stroke-linejoin:miter;fill:rgb(255,140,140);fill-opacity:1;text-anchor:start;opacity:0.5;cursor:pointer;pointer-events:all" d="M 70.91730014,49.65682815 L 118.89620559,83.25201942 A 145.14546649,145.14546649,0,0,1,12.65026094,144.59314417 L 7.54542458,86.24459756 A 86.57403792,86.57403792,0,0,0,70.91730014,49.65682815 Z"></path></g><g transform="translate(0,0)" style="opacity:1"><path style="stroke:rgb(0,0,0);stroke-opacity:1;stroke-width:1;stroke-linecap:round;stroke-linejoin:miter;fill:rgb(255,140,140);fill-opacity:1;text-anchor:start;opacity:0.5;cursor:pointer;pointer-events:all" d="M 63.35054262,-53.15741694 L 107.12451079,-89.8881375 A 139.84111726,139.84111726,0,0,1,137.71661646,24.28315517 L 81.44188772,14.36040217 A 82.69826011,82.69826011,0,0,0,63.35054262,-53.15741694 Z"></path></g><g transform="translate(0,0)" style="opacity:1"><path style="stroke:rgb(0,0,0);stroke-opacity:1;stroke-width:1;stroke-linecap:round;stroke-linejoin:miter;fill:rgb(255,140,140);fill-opacity:1;text-anchor:start;opacity:0.5;cursor:pointer;pointer-events:all" d="M 73.45218664,-31.29505206 L 131.27946595,-55.93295325 A 142.69826011,142.69826011,0,0,1,131.27946595,55.93295325 L 73.45218664,31.29505206 A 79.84111726,79.84111726,0,0,0,73.45218664,-31.29505206 Z"></path></g><g transform="translate(0,0)" style="opacity:1"><path style="stroke:rgb(0,0,0);stroke-opacity:1;stroke-width:1;stroke-linecap:round;stroke-linejoin:miter;fill:rgb(255,140,140);fill-opacity:1;text-anchor:start;opacity:0.5;cursor:pointer;pointer-events:all" d="M 88.78204738,57.82534727 L 143.84658404,93.68987222 A 171.66721264,171.66721264,0,0,1,9.21451741,171.41973213 L 5.68719602,105.80018207 A 105.95292693,105.95292693,0,0,0,88.78204738,57.82534727 Z"></path></g><g transform="translate(0,0)" style="opacity:1"><path style="stroke:rgb(0,0,0);stroke-opacity:1;stroke-width:1;stroke-linecap:round;stroke-linejoin:miter;fill:rgb(255,140,140);fill-opacity:1;text-anchor:start;opacity:0.5;cursor:pointer;pointer-events:all" d="M 88.74899157,-37.81241157 L 141.3192455,-60.21050356 A 153.61130781,153.61130781,0,0,1,141.3192455,60.21050356 L 88.74899157,37.81241157 A 96.46845066,96.46845066,0,0,0,88.74899157,-37.81241157 Z"></path></g><g transform="translate(0,0)" style="opacity:1"><path style="stroke:rgb(0,0,0);stroke-opacity:1;stroke-width:1;stroke-linecap:round;stroke-linejoin:miter;fill:rgb(255,140,140);fill-opacity:1;text-anchor:start;opacity:0.5;cursor:pointer;pointer-events:all" d="M 28.14900896,-58.30891318 L 48.6442503,-100.76352497 A 111.89079968,111.89079968,0,0,1,100.76352497,-48.6442503 L 58.30891318,-28.14900896 A 64.74794253,64.74794253,0,0,0,28.14900896,-58.30891318 Z"></path></g><g transform="translate(0,0)" style="opacity:1"><path style="stroke:rgb(0,0,0);stroke-opacity:1;stroke-width:1;stroke-linecap:round;stroke-linejoin:miter;fill:rgb(255,140,140);fill-opacity:1;text-anchor:start;opacity:0.5;cursor:pointer;pointer-events:all" d="M 84.55534964,-14.9093895 L 143.64381482,-25.32828016 A 145.8597522,145.8597522,0,0,1,111.73505265,93.75684147 L 65.77238606,55.18958489 A 85.8597522,85.8597522,0,0,0,84.55534964,-14.9093895 Z"></path></g><g transform="translate(0,0)" style="opacity:1"><path style="stroke:rgb(0,0,0);stroke-opacity:1;stroke-width:1;stroke-linecap:round;stroke-linejoin:miter;fill:rgb(255,140,140);fill-opacity:1;text-anchor:start;opacity:0.5;cursor:pointer;pointer-events:all" d="M 72.30945063,54.33702709 L 120.27601643,90.38156295 A 150.44981572,150.44981572,0,0,1,18.13472133,149.35286717 L 10.90252052,89.79033472 A 90.44981572,90.44981572,0,0,0,72.30945063,54.33702709 Z"></path></g><g transform="translate(0,0)" style="opacity:1"><path style="stroke:rgb(0,0,0);stroke-opacity:1;stroke-width:1;stroke-linecap:round;stroke-linejoin:miter;fill:rgb(255,140,140);fill-opacity:1;text-anchor:start;opacity:0.5;cursor:pointer;pointer-events:all" d="M 84.99502438,30.93565894 L 141.37658163,51.45686754 A 150.44981572,150.44981572,0,0,1,51.45686754,141.37658163 L 30.93565894,84.99502438 A 90.44981572,90.44981572,0,0,0,84.99502438,30.93565894 Z"></path></g><g transform="translate(0,0)" style="opacity:1"><path style="stroke:rgb(0,0,0);stroke-opacity:1;stroke-width:1;stroke-linecap:round;stroke-linejoin:miter;fill:rgb(255,140,140);fill-opacity:1;text-anchor:start;opacity:0.5;cursor:pointer;pointer-events:all" d="M 105.89005944,38.54082974 L 163.61403472,59.55063855 A 174.11441901,174.11441901,0,0,1,59.55063855,163.61403472 L 38.54082974,105.89005944 A 112.68584759,112.68584759,0,0,0,105.89005944,38.54082974 Z"></path></g><g transform="translate(0,0)" style="opacity:1"><path style="stroke:rgb(0,0,0);stroke-opacity:1;stroke-width:1;stroke-linecap:round;stroke-linejoin:miter;fill:rgb(255,140,140);fill-opacity:1;text-anchor:start;opacity:0.5;cursor:pointer;pointer-events:all" d="M 57.7162083,-42.1705241 L 92.32059993,-67.45432867 A 114.33800605,114.33800605,0,0,1,113.67914916,12.25686226 L 71.06896464,7.66264101 A 71.48086319,71.48086319,0,0,0,57.7162083,-42.1705241 Z"></path></g><g transform="translate(0,0)" style="opacity:1"><path style="stroke:rgb(0,0,0);stroke-opacity:1;stroke-width:1;stroke-linecap:round;stroke-linejoin:miter;fill:rgb(255,140,140);fill-opacity:1;text-anchor:start;opacity:0.5;cursor:pointer;pointer-events:all" d="M 90.8171945,7.94547497 L 149.16574111,13.05031133 A 149.73553,149.73553,0,0,1,85.88477169,122.65616551 L 52.28958042,74.67726005 A 91.16410143,91.16410143,0,0,0,90.8171945,7.94547497 Z"></path></g><g transform="translate(0,0)" style="opacity:1"><path style="stroke:rgb(0,0,0);stroke-opacity:1;stroke-width:1;stroke-linecap:round;stroke-linejoin:miter;fill:rgb(178,235,242);fill-opacity:1;text-anchor:start;opacity:0.5;cursor:pointer;pointer-events:all" d="M 57.3778897,88.09504418 L 104.15770486,159.91835285 A 190.84733967,190.84733967,0,0,1,-170.16239483,86.41450367 L -93.73823218,47.60360135 A 105.13305396,105.13305396,0,0,0,57.3778897,88.09504418 Z"></path></g><g transform="translate(0,0)" style="opacity:1"><path style="stroke:rgb(0,0,0);stroke-opacity:1;stroke-width:1;stroke-linecap:round;stroke-linejoin:miter;fill:rgb(178,235,242);fill-opacity:1;text-anchor:start;opacity:0.5;cursor:pointer;pointer-events:all" d="M 82.42369832,-32.53148976 L 150.19332403,-59.27922044 A 161.46845066,161.46845066,0,0,1,100.43162387,126.43397283 L 55.11527174,69.38494572 A 88.61130781,88.61130781,0,0,0,82.42369832,-32.53148976 Z"></path></g><g transform="translate(0,0)" style="opacity:1"><path style="stroke:rgb(0,0,0);stroke-opacity:1;stroke-width:1;stroke-linecap:round;stroke-linejoin:miter;fill:rgb(178,235,242);fill-opacity:1;text-anchor:start;opacity:0.5;cursor:pointer;pointer-events:all" d="M 134.29425722,47.86066971 L 213.68864781,76.15576426 A 226.85356209,226.85356209,0,0,1,-40.89149741,223.13767963 L -25.6985728,140.23257319 A 142.56784781,142.56784781,0,0,0,134.29425722,47.86066971 Z"></path></g><g transform="translate(0,0)" style="opacity:1"><path style="stroke:rgb(0,0,0);stroke-opacity:1;stroke-width:1;stroke-linecap:round;stroke-linejoin:miter;fill:rgb(178,235,242);fill-opacity:1;text-anchor:start;opacity:0.5;cursor:pointer;pointer-events:all" d="M 106.22130734,19.46577701 L 184.9108999,33.88618004 A 187.99019682,187.99019682,0,0,1,33.88618004,184.9108999 L 19.46577701,106.22130734 A 107.99019682,107.99019682,0,0,0,106.22130734,19.46577701 Z"></path></g><g transform="translate(0,0)" style="opacity:1"><path style="stroke:rgb(0,0,0);stroke-opacity:1;stroke-width:1;stroke-linecap:round;stroke-linejoin:miter;fill:rgb(178,235,242);fill-opacity:1;text-anchor:start;opacity:0.5;cursor:pointer;pointer-events:all" d="M 110.26743269,35.17451551 L 189.20562251,60.35522856 A 198.59889528,198.59889528,0,0,1,-42.33365007,194.03448992 L -24.67169235,113.08165567 A 115.74175242,115.74175242,0,0,0,110.26743269,35.17451551 Z"></path></g><g transform="translate(0,0)" style="opacity:1"><path style="stroke:rgb(0,0,0);stroke-opacity:1;stroke-width:1;stroke-linecap:round;stroke-linejoin:miter;fill:rgb(178,235,242);fill-opacity:1;text-anchor:start;opacity:0.5;cursor:pointer;pointer-events:all" d="M 151.20287023,53.88667231 L 240.01693428,85.53881197 A 254.80387967,254.80387967,0,0,1,-45.92968297,250.63016841 L -28.93420797,157.8888629 A 160.51816539,160.51816539,0,0,0,151.20287023,53.88667231 Z"></path></g><g transform="translate(0,0)" style="opacity:1"><path style="stroke:rgb(0,0,0);stroke-opacity:1;stroke-width:1;stroke-linecap:round;stroke-linejoin:miter;fill:rgb(178,235,242);fill-opacity:1;text-anchor:start;opacity:0.5;cursor:pointer;pointer-events:all" d="M 34.7234489,-38.15028134 L 77.99492223,-85.69218556 A 115.87216473,115.87216473,0,0,1,110.3916768,35.21414848 L 49.14652952,15.67738835 A 51.58645044,51.58645044,0,0,0,34.7234489,-38.15028134 Z"></path></g><g transform="translate(0,0)" style="opacity:1"><path style="stroke:rgb(0,0,0);stroke-opacity:1;stroke-width:1;stroke-linecap:round;stroke-linejoin:miter;fill:rgb(178,235,242);fill-opacity:1;text-anchor:start;opacity:0.5;cursor:pointer;pointer-events:all" d="M 146.4519863,26.83832255 L 234.97777792,43.06127595 A 238.89083198,238.89083198,0,0,1,43.06127595,234.97777792 L 26.83832255,146.4519863 A 148.89083198,148.89083198,0,0,0,146.4519863,26.83832255 Z"></path></g><g transform="translate(0,0)" style="opacity:1"><path style="stroke:rgb(0,0,0);stroke-opacity:1;stroke-width:1;stroke-linecap:round;stroke-linejoin:miter;fill:rgb(178,235,242);fill-opacity:1;text-anchor:start;opacity:0.5;cursor:pointer;pointer-events:all" d="M 80.93880892,-95.15453314 L 134.62322739,-158.26783868 A 207.77902231,207.77902231,0,0,1,195.7210542,69.7523552 L 117.67233125,41.93683853 A 124.92187945,124.92187945,0,0,0,80.93880892,-95.15453314 Z"></path></g><g transform="translate(0,0)" style="opacity:1"><path style="stroke:rgb(0,0,0);stroke-opacity:1;stroke-width:1;stroke-linecap:round;stroke-linejoin:miter;fill:rgb(178,235,242);fill-opacity:1;text-anchor:start;opacity:0.5;cursor:pointer;pointer-events:all" d="M -30.10743112,142.58535373 L -48.11099561,227.84817808 A 232.87219704,232.87219704,0,0,1,-221.37780823,-72.25874464 L -138.53625409,-45.21887667 A 145.72933989,145.72933989,0,0,0,-30.10743112,142.58535373 Z"></path></g><g transform="translate(0,0)" style="opacity:1"><path style="stroke:rgb(0,0,0);stroke-opacity:1;stroke-width:1;stroke-linecap:round;stroke-linejoin:miter;fill:rgb(178,235,242);fill-opacity:1;text-anchor:start;opacity:0.5;cursor:pointer;pointer-events:all" d="M 75.10005958,94.54391482 L 120.4164117,151.59294194 A 193.59889528,193.59889528,0,0,1,-120.4164117,151.59294194 L -75.10005958,94.54391482 A 120.74175242,120.74175242,0,0,0,75.10005958,94.54391482 Z"></path></g><g transform="translate(0,0)" style="opacity:1"><path style="stroke:rgb(0,0,0);stroke-opacity:1;stroke-width:1;stroke-linecap:round;stroke-linejoin:miter;fill:rgb(178,235,242);fill-opacity:1;text-anchor:start;opacity:0.5;cursor:pointer;pointer-events:all" d="M 106.71215514,-42.11780656 L 177.13941323,-69.91446786 A 190.43740319,190.43740319,0,0,1,118.44999794,149.11741187 L 71.35653396,89.831168 A 114.72311748,114.72311748,0,0,0,106.71215514,-42.11780656 Z"></path></g><g transform="translate(0,0)" style="opacity:1"><path style="stroke:rgb(0,0,0);stroke-opacity:1;stroke-width:1;stroke-linecap:round;stroke-linejoin:miter;fill:rgb(178,235,242);fill-opacity:1;text-anchor:start;opacity:0.5;cursor:pointer;pointer-events:all" d="M 124.01452265,44.19711037 L 198.02624269,70.57389342 A 210.22622868,210.22622868,0,0,1,-37.8943368,206.7827035 L -23.73144097,129.49828224 A 131.65480011,131.65480011,0,0,0,124.01452265,44.19711037 Z"></path></g><g transform="translate(0,0)" style="opacity:1"><path style="stroke:rgb(0,0,0);stroke-opacity:1;stroke-width:1;stroke-linecap:round;stroke-linejoin:miter;fill:rgb(178,235,242);fill-opacity:1;text-anchor:start;opacity:0.5;cursor:pointer;pointer-events:all" d="M 50.44833716,-68.08138749 L 92.97421331,-125.47120082 A 156.16410143,156.16410143,0,0,1,143.25363104,62.1741407 L 77.73023531,33.73604251 A 84.73553,84.73553,0,0,0,50.44833716,-68.08138749 Z"></path></g><g transform="translate(0,0)" style="opacity:1"><path style="stroke:rgb(0,0,0);stroke-opacity:1;stroke-width:1;stroke-linecap:round;stroke-linejoin:miter;fill:rgb(178,235,242);fill-opacity:1;text-anchor:start;opacity:0.5;cursor:pointer;pointer-events:all" d="M 85.11276604,-24.65321333 L 155.09337132,-44.92334285 A 161.46845066,161.46845066,0,0,1,38.64192953,156.77647094 L 21.20607399,86.03642425 A 88.61130781,88.61130781,0,0,0,85.11276604,-24.65321333 Z"></path></g><g transform="translate(0,0)" style="opacity:1"><path style="stroke:rgb(0,0,0);stroke-opacity:1;stroke-width:1;stroke-linecap:round;stroke-linejoin:miter;fill:rgb(178,235,242);fill-opacity:1;text-anchor:start;opacity:0.5;cursor:pointer;pointer-events:all" d="M 80.02511069,82.20325628 L 132.83961075,136.45527601 A 190.43740319,190.43740319,0,0,1,-132.83961075,136.45527601 L -80.02511069,82.20325628 A 114.72311748,114.72311748,0,0,0,80.02511069,82.20325628 Z"></path></g><g transform="translate(0,0)" style="opacity:1"><path style="stroke:rgb(0,0,0);stroke-opacity:1;stroke-width:1;stroke-linecap:round;stroke-linejoin:miter;fill:rgb(178,235,242);fill-opacity:1;text-anchor:start;opacity:0.5;cursor:pointer;pointer-events:all" d="M 106.50290174,50.53625522 L 177.48829304,84.21924219 A 196.45603814,196.45603814,0,0,1,-15.80814329,195.81899174 L -9.48577004,117.5023461 A 117.88460956,117.88460956,0,0,0,106.50290174,50.53625522 Z"></path></g><g transform="translate(0,0)" style="opacity:1"><path style="stroke:rgb(0,0,0);stroke-opacity:1;stroke-width:1;stroke-linecap:round;stroke-linejoin:miter;fill:rgb(178,235,242);fill-opacity:1;text-anchor:start;opacity:0.5;cursor:pointer;pointer-events:all" d="M -121.57601713,110.65550423 L -192.36063008,175.08192008 A 260.1082289,260.1082289,0,0,1,-192.36063008,-175.08192008 L -121.57601713,-110.65550423 A 164.39394319,164.39394319,0,0,0,-121.57601713,110.65550423 Z"></path></g><g transform="translate(0,0)" style="opacity:1"><path style="stroke:rgb(0,0,0);stroke-opacity:1;stroke-width:1;stroke-linecap:round;stroke-linejoin:miter;fill:rgb(178,235,242);fill-opacity:1;text-anchor:start;opacity:0.5;cursor:pointer;pointer-events:all" d="M 116.77057349,-113.6764952 L 187.40056144,-182.43499528 A 261.53680033,261.53680033,0,0,1,187.40056144,182.43499528 L 116.77057349,113.6764952 A 162.96537176,162.96537176,0,0,0,116.77057349,-113.6764952 Z"></path></g><g transform="translate(0,0)" style="opacity:1"><path style="stroke:rgb(0,0,0);stroke-opacity:1;stroke-width:1;stroke-linecap:round;stroke-linejoin:miter;fill:rgb(178,235,242);fill-opacity:1;text-anchor:start;opacity:0.5;cursor:pointer;pointer-events:all" d="M 1.98361494,-98.48574645 L 3.42197589,-169.89983423 A 169.93429198,169.93429198,0,0,1,145.4265846,-87.91343517 L 84.29935086,-50.96073416 A 98.50572055,98.50572055,0,0,0,1.98361494,-98.48574645 Z"></path></g><g transform="translate(0,0)" style="opacity:1"><path style="stroke:rgb(0,0,0);stroke-opacity:1;stroke-width:1;stroke-linecap:round;stroke-linejoin:miter;fill:rgb(178,235,242);fill-opacity:1;text-anchor:start;opacity:0.5;cursor:pointer;pointer-events:all" d="M 94.04110473,96.60074153 L 150.84160479,154.94725331 A 216.24486363,216.24486363,0,0,1,-150.84160479,154.94725331 L -94.04110473,96.60074153 A 134.8162922,134.8162922,0,0,0,94.04110473,96.60074153 Z"></path></g><g transform="translate(0,0)" style="opacity:1"><path style="stroke:rgb(0,0,0);stroke-opacity:1;stroke-width:1;stroke-linecap:round;stroke-linejoin:miter;fill:rgb(178,235,242);fill-opacity:1;text-anchor:start;opacity:0.5;cursor:pointer;pointer-events:all" d="M 79.97958265,-11.89814631 L 149.21762299,-22.19832927 A 150.8597522,150.8597522,0,0,1,55.38449443,140.32541684 L 29.68569436,75.21342351 A 80.8597522,80.8597522,0,0,0,79.97958265,-11.89814631 Z"></path></g><g transform="translate(0,0)" style="opacity:1"><path style="stroke:rgb(0,0,0);stroke-opacity:1;stroke-width:1;stroke-linecap:round;stroke-linejoin:miter;fill:rgb(178,235,242);fill-opacity:1;text-anchor:start;opacity:0.5;cursor:pointer;pointer-events:all" d="M 162.60449245,-24.18982417 L 257.27691496,-38.27374781 A 260.1082289,260.1082289,0,0,1,95.49241958,241.94521807 L 60.35324398,152.91453331 A 164.39394319,164.39394319,0,0,0,162.60449245,-24.18982417 Z"></path></g><g transform="translate(0,0)" style="opacity:1"><path style="stroke:rgb(0,0,0);stroke-opacity:1;stroke-width:1;stroke-linecap:round;stroke-linejoin:miter;fill:rgb(178,235,242);fill-opacity:1;text-anchor:start;opacity:0.5;cursor:pointer;pointer-events:all" d="M 106.43307582,-37.93131883 L 172.37079004,-61.43063464 A 182.99019682,182.99019682,0,0,1,118.56216572,139.38588519 L 73.20808804,86.06602362 A 112.99019682,112.99019682,0,0,0,106.43307582,-37.93131883 Z"></path></g><g transform="translate(0,0)" style="opacity:1"><path style="stroke:rgb(0,0,0);stroke-opacity:1;stroke-width:1;stroke-linecap:round;stroke-linejoin:miter;fill:rgb(178,235,242);fill-opacity:1;text-anchor:start;opacity:0.5;cursor:pointer;pointer-events:all" d="M 53.85928945,113.50604802 L 88.76711231,187.07272627 A 207.0647366,207.0647366,0,0,1,-170.41093741,117.62617715 L -103.39653691,71.36947635 A 125.63616517,125.63616517,0,0,0,53.85928945,113.50604802 Z"></path></g><g transform="translate(0,0)" style="opacity:1"><path style="stroke:rgb(0,0,0);stroke-opacity:1;stroke-width:1;stroke-linecap:round;stroke-linejoin:miter;fill:rgb(178,235,242);fill-opacity:1;text-anchor:start;opacity:0.5;cursor:pointer;pointer-events:all" d="M 83.18946109,120.52074114 L 131.8807251,191.06221536 A 232.15791132,232.15791132,0,0,1,-131.8807251,191.06221536 L -83.18946109,120.52074114 A 146.44362561,146.44362561,0,0,0,83.18946109,120.52074114 Z"></path></g><g transform="translate(0,0)" style="opacity:1"><path style="stroke:rgb(0,0,0);stroke-opacity:1;stroke-width:1;stroke-linecap:round;stroke-linejoin:miter;fill:rgb(178,235,242);fill-opacity:1;text-anchor:start;opacity:0.5;cursor:pointer;pointer-events:all" d="M 108.76059458,-8.7800629 L 177.10966713,-14.29777046 A 177.68584759,177.68584759,0,0,1,76.17260113,160.53035623 L 46.77653977,98.57946928 A 109.11441901,109.11441901,0,0,0,108.76059458,-8.7800629 Z"></path></g><g transform="translate(0,0)" style="opacity:1"><path style="stroke:rgb(0,0,0);stroke-opacity:1;stroke-width:1;stroke-linecap:round;stroke-linejoin:miter;fill:rgb(178,235,242);fill-opacity:1;text-anchor:start;opacity:0.5;cursor:pointer;pointer-events:all" d="M 93.78725266,44.50260472 L 157.02878309,74.51108401 A 173.81006978,173.81006978,0,0,1,-13.98589992,173.24645728 L -8.35324011,103.47344572 A 103.81006978,103.81006978,0,0,0,93.78725266,44.50260472 Z"></path></g><g transform="translate(0,0)" style="opacity:1"><path style="stroke:rgb(0,0,0);stroke-opacity:1;stroke-width:1;stroke-linecap:round;stroke-linejoin:miter;fill:rgb(178,235,242);fill-opacity:1;text-anchor:start;opacity:0.5;cursor:pointer;pointer-events:all" d="M 110.73618519,-20.29315908 L 189.42577775,-34.71356211 A 192.58026033,192.58026033,0,0,1,64.65006223,181.40431672 L 37.79370131,106.04692904 A 112.58026033,112.58026033,0,0,0,110.73618519,-20.29315908 Z"></path></g><g transform="translate(0,0)" style="opacity:1"><path style="stroke:rgb(0,0,0);stroke-opacity:1;stroke-width:1;stroke-linecap:round;stroke-linejoin:miter;fill:rgb(178,235,242);fill-opacity:1;text-anchor:start;opacity:0.5;cursor:pointer;pointer-events:all" d="M 129.04214538,72.21018883 L 201.34825626,112.67168228 A 230.72933989,230.72933989,0,0,1,-3.09758899,230.70854607 L -1.98521475,147.85887048 A 147.87219704,147.87219704,0,0,0,129.04214538,72.21018883 Z"></path></g><g transform="translate(0,0)" style="opacity:1"><path style="stroke:rgb(0,0,0);stroke-opacity:1;stroke-width:1;stroke-linecap:round;stroke-linejoin:miter;fill:rgb(178,235,242);fill-opacity:1;text-anchor:start;opacity:0.5;cursor:pointer;pointer-events:all" d="M 153.9018801,-17.63956479 L 240.47792879,-27.56253532 A 242.05232407,242.05232407,0,0,1,96.36910861,222.04126304 L 61.67462882,142.10272025 A 154.90946693,154.90946693,0,0,0,153.9018801,-17.63956479 Z"></path></g><g transform="translate(0,0)" style="opacity:1"><path style="stroke:rgb(0,0,0);stroke-opacity:1;stroke-width:1;stroke-linecap:round;stroke-linejoin:miter;fill:rgb(178,235,242);fill-opacity:1;text-anchor:start;opacity:0.5;cursor:pointer;pointer-events:all" d="M -137.59089859,109.29402174 L -209.18183458,166.16160088 A 267.14549879,267.14549879,0,0,1,-209.18183458,-166.16160088 L -137.59089859,-109.29402174 A 175.71692737,175.71692737,0,0,0,-137.59089859,109.29402174 Z"></path></g><g transform="translate(0,0)" style="opacity:1"><path style="stroke:rgb(0,0,0);stroke-opacity:1;stroke-width:1;stroke-linecap:round;stroke-linejoin:miter;fill:rgb(178,235,242);fill-opacity:1;text-anchor:start;opacity:0.5;cursor:pointer;pointer-events:all" d="M 109.99282427,-23.99778377 L 188.15418147,-41.05070846 A 192.58026033,192.58026033,0,0,1,58.52613436,183.47165521 L 34.21372176,107.25547194 A 112.58026033,112.58026033,0,0,0,109.99282427,-23.99778377 Z"></path></g><g transform="translate(0,0)" style="opacity:1"><path style="stroke:rgb(0,0,0);stroke-opacity:1;stroke-width:1;stroke-linecap:round;stroke-linejoin:miter;fill:rgb(178,235,242);fill-opacity:1;text-anchor:start;opacity:0.5;cursor:pointer;pointer-events:all" d="M 111.53900392,2.24652239 L 184.38137346,3.71365056 A 184.41876825,184.41876825,0,0,1,95.40680246,157.82212813 L 57.71504742,95.47234971 A 111.56162539,111.56162539,0,0,0,111.53900392,2.24652239 Z"></path></g><g transform="translate(0,0)" style="opacity:1"><path style="stroke:rgb(0,0,0);stroke-opacity:1;stroke-width:1;stroke-linecap:round;stroke-linejoin:miter;fill:rgb(178,235,242);fill-opacity:1;text-anchor:start;opacity:0.5;cursor:pointer;pointer-events:all" d="M 88.10056319,-44.74059294 L 159.42978166,-80.96410177 A 178.81006978,178.81006978,0,0,1,159.42978166,80.96410177 L 88.10056319,44.74059294 A 98.81006978,98.81006978,0,0,0,88.10056319,-44.74059294 Z"></path></g><g transform="translate(0,0)" style="opacity:1"><path style="stroke:rgb(0,0,0);stroke-opacity:1;stroke-width:1;stroke-linecap:round;stroke-linejoin:miter;fill:rgb(178,235,242);fill-opacity:1;text-anchor:start;opacity:0.5;cursor:pointer;pointer-events:all" d="M 162.33124269,45.84096959 L 246.19439788,69.52321511 A 255.82251462,255.82251462,0,0,1,-62.8883285,247.97221039 L -41.46617715,163.50346479 A 168.67965748,168.67965748,0,0,0,162.33124269,45.84096959 Z"></path></g><g transform="translate(0,0)" style="opacity:1"><path style="stroke:rgb(0,0,0);stroke-opacity:1;stroke-width:1;stroke-linecap:round;stroke-linejoin:miter;fill:rgb(178,235,242);fill-opacity:1;text-anchor:start;opacity:0.5;cursor:pointer;pointer-events:all" d="M 30.04475869,103.72653992 L 52.3021558,180.56798885 A 187.99019682,187.99019682,0,0,1,-182.52754336,44.98899883 L -104.85219796,25.84374569 A 107.99019682,107.99019682,0,0,0,30.04475869,103.72653992 Z"></path></g><g transform="translate(0,0)" style="opacity:1"><path style="stroke:rgb(0,0,0);stroke-opacity:1;stroke-width:1;stroke-linecap:round;stroke-linejoin:miter;fill:rgb(178,235,242);fill-opacity:1;text-anchor:start;opacity:0.5;cursor:pointer;pointer-events:all" d="M 86.29785017,73.4052806 L 146.14667439,124.31291881 A 191.86597462,191.86597462,0,0,1,-64.4102733,180.7314829 L -38.03349024,106.71976286 A 113.29454605,113.29454605,0,0,0,86.29785017,73.4052806 Z"></path></g><g transform="translate(0,0)" style="opacity:1"><path style="stroke:rgb(0,0,0);stroke-opacity:1;stroke-width:1;stroke-linecap:round;stroke-linejoin:miter;fill:rgb(178,235,242);fill-opacity:1;text-anchor:start;opacity:0.5;cursor:pointer;pointer-events:all" d="M 90.28567952,42.8410876 L 152.23656647,72.23714896 A 168.50572055,168.50572055,0,0,1,-13.55907714,167.95930842 L -8.04136957,99.61023587 A 99.93429198,99.93429198,0,0,0,90.28567952,42.8410876 Z"></path></g><g transform="translate(0,0)" style="opacity:1"><path style="stroke:rgb(0,0,0);stroke-opacity:1;stroke-width:1;stroke-linecap:round;stroke-linejoin:miter;fill:rgb(178,235,242);fill-opacity:1;text-anchor:start;opacity:0.5;cursor:pointer;pointer-events:all" d="M 112.7151702,77.80166448 L 176.20249699,121.62380209 A 214.10200649,214.10200649,0,0,1,-91.78393756,193.43055081 L -58.71336854,123.735803 A 136.95914934,136.95914934,0,0,0,112.7151702,77.80166448 Z"></path></g><g transform="translate(0,0)" style="opacity:1"><path style="stroke:rgb(0,0,0);stroke-opacity:1;stroke-width:1;stroke-linecap:round;stroke-linejoin:miter;fill:rgb(178,235,242);fill-opacity:1;text-anchor:start;opacity:0.5;cursor:pointer;pointer-events:all" d="M 110.67267537,60.95896459 L 180.74614142,99.55571778 A 206.35045088,206.35045088,0,0,1,-106.75289121,176.5908514 L -65.36586608,108.12834961 A 126.35045088,126.35045088,0,0,0,110.67267537,60.95896459 Z"></path></g><g transform="translate(0,0)" style="opacity:1"><path style="stroke:rgb(0,0,0);stroke-opacity:1;stroke-width:1;stroke-linecap:round;stroke-linejoin:miter;fill:rgb(178,235,242);fill-opacity:1;text-anchor:start;opacity:0.5;cursor:pointer;pointer-events:all" d="M 119.52127812,71.16201433 L 182.12266724,108.43438139 A 211.95914934,211.95914934,0,0,1,-103.50566574,184.96826255 L -67.92745598,121.38875126 A 139.10200649,139.10200649,0,0,0,119.52127812,71.16201433 Z"></path></g><g transform="translate(0,0)" style="opacity:1"><path style="stroke:rgb(0,0,0);stroke-opacity:1;stroke-width:1;stroke-linecap:round;stroke-linejoin:miter;fill:rgb(178,235,242);fill-opacity:1;text-anchor:start;opacity:0.5;cursor:pointer;pointer-events:all" d="M 82.42369832,-32.53148976 L 150.19332403,-59.27922044 A 161.46845066,161.46845066,0,0,1,100.43162387,126.43397283 L 55.11527174,69.38494572 A 88.61130781,88.61130781,0,0,0,82.42369832,-32.53148976 Z"></path></g><g transform="translate(0,0)" style="opacity:1"><path style="stroke:rgb(0,0,0);stroke-opacity:1;stroke-width:1;stroke-linecap:round;stroke-linejoin:miter;fill:rgb(178,235,242);fill-opacity:1;text-anchor:start;opacity:0.5;cursor:pointer;pointer-events:all" d="M 89.84280592,92.28817226 L 148.63630599,152.68193007 A 213.08337154,213.08337154,0,0,1,-148.63630599,152.68193007 L -89.84280592,92.28817226 A 128.79765726,128.79765726,0,0,0,89.84280592,92.28817226 Z"></path></g><g transform="translate(0,0)" style="opacity:1"><path style="stroke:rgb(0,0,0);stroke-opacity:1;stroke-width:1;stroke-linecap:round;stroke-linejoin:miter;fill:rgb(178,235,242);fill-opacity:1;text-anchor:start;opacity:0.5;cursor:pointer;pointer-events:all" d="M 68.56776015,105.2753925 L 113.00858455,173.50753575 A 207.0647366,207.0647366,0,0,1,-184.62207294,93.75764143 L -112.01911842,56.88728423 A 125.63616517,125.63616517,0,0,0,68.56776015,105.2753925 Z"></path></g><g transform="translate(0,0)" style="opacity:1"><path style="stroke:rgb(0,0,0);stroke-opacity:1;stroke-width:1;stroke-linecap:round;stroke-linejoin:miter;fill:rgb(178,235,242);fill-opacity:1;text-anchor:start;opacity:0.5;cursor:pointer;pointer-events:all" d="M 124.34474655,35.11390445 L 195.83464933,55.30204818 A 203.49330803,203.49330803,0,0,1,-50.02434606,197.24880535 L -31.76284,125.24266156 A 129.20759374,129.20759374,0,0,0,124.34474655,35.11390445 Z"></path></g><g transform="translate(0,0)" style="opacity:1"><path style="stroke:rgb(0,0,0);stroke-opacity:1;stroke-width:1;stroke-linecap:round;stroke-linejoin:miter;fill:rgb(178,235,242);fill-opacity:1;text-anchor:start;opacity:0.5;cursor:pointer;pointer-events:all" d="M 69.83439816,-87.91494212 L 114.26219436,-143.84536086 A 183.70448253,183.70448253,0,0,1,170.87664344,67.44263954 L 104.43583392,41.21937417 A 112.2759111,112.2759111,0,0,0,69.83439816,-87.91494212 Z"></path></g><g transform="translate(0,0)" style="opacity:1"><path style="stroke:rgb(0,0,0);stroke-opacity:1;stroke-width:1;stroke-linecap:round;stroke-linejoin:miter;fill:rgb(178,235,242);fill-opacity:1;text-anchor:start;opacity:0.5;cursor:pointer;pointer-events:all" d="M 111.64610873,44.06516956 L 180.74455063,71.33736556 A 194.31318099,194.31318099,0,0,1,-28.59230451,192.19805522 L -17.6614981,118.72095118 A 120.02746671,120.02746671,0,0,0,111.64610873,44.06516956 Z"></path></g><g transform="translate(0,0)" style="opacity:1"><path style="stroke:rgb(0,0,0);stroke-opacity:1;stroke-width:1;stroke-linecap:round;stroke-linejoin:miter;fill:rgb(178,235,242);fill-opacity:1;text-anchor:start;opacity:0.5;cursor:pointer;pointer-events:all" d="M 25.76982729,101.61187596 L 44.73369897,176.38748682 A 181.97156187,181.97156187,0,0,1,-175.12289398,49.45322369 L -100.88337955,28.4886129 A 104.82870473,104.82870473,0,0,0,25.76982729,101.61187596 Z"></path></g><g transform="translate(0,0)" style="opacity:1"><path style="stroke:rgb(0,0,0);stroke-opacity:1;stroke-width:1;stroke-linecap:round;stroke-linejoin:miter;fill:rgb(178,235,242);fill-opacity:1;text-anchor:start;opacity:0.5;cursor:pointer;pointer-events:all" d="M 84.20281943,39.9547346 L 150.02563681,71.18804979 A 166.05851418,166.05851418,0,0,1,-13.36215884,165.52003759 L -7.49959455,92.89914799 A 93.20137132,93.20137132,0,0,0,84.20281943,39.9547346 Z"></path></g></g></g><g transform="translate(0,0)" style="opacity:1"><g transform="translate(0,0)" style="opacity:1"><line style="stroke:rgb(0,0,0);stroke-opacity:1;stroke-width:1;stroke-linecap:square;stroke-linejoin:round;fill:none;fill-opacity:1;text-anchor:start;opacity:1" x1="-24.999999999999996" y1="-43.55348771283599" x2="-24.999999999999986" y2="-227.1560283687943"></line><line style="stroke:rgb(0,0,0);stroke-opacity:1;stroke-width:1;stroke-linecap:square;stroke-linejoin:round;fill:none;fill-opacity:1;text-anchor:start;opacity:1" x1="-24.999999999999996" y1="-43.55348771283599" x2="-29.999999999999996" y2="-43.55348771283599"></line><line style="stroke:rgb(0,0,0);stroke-opacity:1;stroke-width:1;stroke-linecap:square;stroke-linejoin:round;fill:none;fill-opacity:1;text-anchor:start;opacity:1" x1="-24.999999999999993" y1="-89.45412287682556" x2="-29.999999999999993" y2="-89.45412287682556"></line><line style="stroke:rgb(0,0,0);stroke-opacity:1;stroke-width:1;stroke-linecap:square;stroke-linejoin:round;fill:none;fill-opacity:1;text-anchor:start;opacity:1" x1="-24.999999999999993" y1="-135.3547580408151" x2="-29.999999999999993" y2="-135.3547580408151"></line><line style="stroke:rgb(0,0,0);stroke-opacity:1;stroke-width:1;stroke-linecap:square;stroke-linejoin:round;fill:none;fill-opacity:1;text-anchor:start;opacity:1" x1="-24.99999999999999" y1="-181.2553932048047" x2="-29.99999999999999" y2="-181.2553932048047"></line><line style="stroke:rgb(0,0,0);stroke-opacity:1;stroke-width:1;stroke-linecap:square;stroke-linejoin:round;fill:none;fill-opacity:1;text-anchor:start;opacity:1" x1="-24.999999999999986" y1="-227.1560283687943" x2="-29.999999999999986" y2="-227.1560283687943"></line><line style="stroke:rgb(0,0,0);stroke-opacity:1;stroke-width:1;stroke-linecap:square;stroke-linejoin:round;fill:none;fill-opacity:1;text-anchor:start;opacity:1" x1="-24.999999999999996" y1="-43.55348771283599" x2="-29.999999999999996" y2="-43.55348771283599"></line><line style="stroke:rgb(0,0,0);stroke-opacity:1;stroke-width:1;stroke-linecap:square;stroke-linejoin:round;fill:none;fill-opacity:1;text-anchor:start;opacity:1" x1="-24.999999999999986" y1="-227.1560283687943" x2="-29.999999999999986" y2="-227.1560283687943"></line><g transform="translate(-33,-43.55348771)" style="opacity:1"><text style="stroke:none;stroke-opacity:1;stroke-width:1;stroke-linecap:round;stroke-linejoin:round;fill:rgb(0,0,0);fill-opacity:1;text-anchor:start;opacity:1;font-family:Arial;font-size:12px" x="-6.673828125" y="3.929947582993595">4</text></g><g transform="translate(-33,-89.45412288)" style="opacity:1"><text style="stroke:none;stroke-opacity:1;stroke-width:1;stroke-linecap:round;stroke-linejoin:round;fill:rgb(0,0,0);fill-opacity:1;text-anchor:start;opacity:1;font-family:Arial;font-size:12px" x="-6.673828125" y="3.929947582993595">5</text></g><g transform="translate(-33,-135.35475804)" style="opacity:1"><text style="stroke:none;stroke-opacity:1;stroke-width:1;stroke-linecap:round;stroke-linejoin:round;fill:rgb(0,0,0);fill-opacity:1;text-anchor:start;opacity:1;font-family:Arial;font-size:12px" x="-6.673828125" y="3.929947582993595">6</text></g><g transform="translate(-33,-181.2553932)" style="opacity:1"><text style="stroke:none;stroke-opacity:1;stroke-width:1;stroke-linecap:round;stroke-linejoin:round;fill:rgb(0,0,0);fill-opacity:1;text-anchor:start;opacity:1;font-family:Arial;font-size:12px" x="-6.673828125" y="3.929947582993595">7</text></g><g transform="translate(-33,-227.15602837)" style="opacity:1"><text style="stroke:none;stroke-opacity:1;stroke-width:1;stroke-linecap:round;stroke-linejoin:round;fill:rgb(0,0,0);fill-opacity:1;text-anchor:start;opacity:1;font-family:Arial;font-size:12px" x="-6.673828125" y="3.929947582993595">8</text></g></g><g transform="translate(-25,-1.13475177)" style="opacity:1"><g transform="translate(0,-226.0212766)" style="opacity:1"><line style="stroke:rgb(0,0,0);stroke-opacity:1;stroke-width:1;stroke-linecap:round;stroke-linejoin:round;fill:none;fill-opacity:1;text-anchor:start;opacity:1" x1="0" y1="0" x2="0" y2="-5"></line><text style="stroke:none;stroke-opacity:1;stroke-width:1;stroke-linecap:round;stroke-linejoin:round;fill:rgb(0,0,0);fill-opacity:1;text-anchor:start;opacity:1;font-family:Arial;font-size:12px" x="-8.3408203125" y="-9.536377402446128">2.0</text></g><g transform="translate(113.0106383,-195.74016733) rotate(30)" style="opacity:1"><line style="stroke:rgb(0,0,0);stroke-opacity:1;stroke-width:1;stroke-linecap:round;stroke-linejoin:round;fill:none;fill-opacity:1;text-anchor:start;opacity:1" x1="0" y1="0" x2="0" y2="-5"></line><text style="stroke:none;stroke-opacity:1;stroke-width:1;stroke-linecap:round;stroke-linejoin:round;fill:rgb(0,0,0);fill-opacity:1;text-anchor:start;opacity:1;font-family:Arial;font-size:12px" x="-8.3408203125" y="-9.536377402446128">2.2</text></g><g transform="translate(195.74016733,-113.0106383) rotate(60)" style="opacity:1"><line style="stroke:rgb(0,0,0);stroke-opacity:1;stroke-width:1;stroke-linecap:round;stroke-linejoin:round;fill:none;fill-opacity:1;text-anchor:start;opacity:1" x1="0" y1="0" x2="0" y2="-5"></line><text style="stroke:none;stroke-opacity:1;stroke-width:1;stroke-linecap:round;stroke-linejoin:round;fill:rgb(0,0,0);fill-opacity:1;text-anchor:start;opacity:1;font-family:Arial;font-size:12px" x="-8.3408203125" y="-9.536377402446128">2.4</text></g><g transform="translate(226.0212766,-0) rotate(90)" style="opacity:1"><line style="stroke:rgb(0,0,0);stroke-opacity:1;stroke-width:1;stroke-linecap:round;stroke-linejoin:round;fill:none;fill-opacity:1;text-anchor:start;opacity:1" x1="0" y1="0" x2="0" y2="-5"></line><text style="stroke:none;stroke-opacity:1;stroke-width:1;stroke-linecap:round;stroke-linejoin:round;fill:rgb(0,0,0);fill-opacity:1;text-anchor:start;opacity:1;font-family:Arial;font-size:12px" x="-8.3408203125" y="-9.536377402446128">2.6</text></g><g transform="translate(195.74016733,113.0106383) rotate(120)" style="opacity:1"><line style="stroke:rgb(0,0,0);stroke-opacity:1;stroke-width:1;stroke-linecap:round;stroke-linejoin:round;fill:none;fill-opacity:1;text-anchor:start;opacity:1" x1="0" y1="0" x2="0" y2="-5"></line><text style="stroke:none;stroke-opacity:1;stroke-width:1;stroke-linecap:round;stroke-linejoin:round;fill:rgb(0,0,0);fill-opacity:1;text-anchor:start;opacity:1;font-family:Arial;font-size:12px" x="-8.3408203125" y="-9.536377402446128">2.8</text></g><g transform="translate(113.0106383,195.74016733) rotate(150)" style="opacity:1"><line style="stroke:rgb(0,0,0);stroke-opacity:1;stroke-width:1;stroke-linecap:round;stroke-linejoin:round;fill:none;fill-opacity:1;text-anchor:start;opacity:1" x1="0" y1="0" x2="0" y2="-5"></line><text style="stroke:none;stroke-opacity:1;stroke-width:1;stroke-linecap:round;stroke-linejoin:round;fill:rgb(0,0,0);fill-opacity:1;text-anchor:start;opacity:1;font-family:Arial;font-size:12px" x="-8.3408203125" y="-9.536377402446128">3.0</text></g><g transform="translate(0,226.0212766) rotate(180)" style="opacity:1"><line style="stroke:rgb(0,0,0);stroke-opacity:1;stroke-width:1;stroke-linecap:round;stroke-linejoin:round;fill:none;fill-opacity:1;text-anchor:start;opacity:1" x1="0" y1="0" x2="0" y2="-5"></line><text style="stroke:none;stroke-opacity:1;stroke-width:1;stroke-linecap:round;stroke-linejoin:round;fill:rgb(0,0,0);fill-opacity:1;text-anchor:start;opacity:1;font-family:Arial;font-size:12px" x="-8.3408203125" y="-9.536377402446128">3.2</text></g><g transform="translate(-113.0106383,195.74016733) rotate(210)" style="opacity:1"><line style="stroke:rgb(0,0,0);stroke-opacity:1;stroke-width:1;stroke-linecap:round;stroke-linejoin:round;fill:none;fill-opacity:1;text-anchor:start;opacity:1" x1="0" y1="0" x2="0" y2="-5"></line><text style="stroke:none;stroke-opacity:1;stroke-width:1;stroke-linecap:round;stroke-linejoin:round;fill:rgb(0,0,0);fill-opacity:1;text-anchor:start;opacity:1;font-family:Arial;font-size:12px" x="-8.3408203125" y="-9.536377402446128">3.4</text></g><g transform="translate(-195.74016733,113.0106383) rotate(240)" style="opacity:1"><line style="stroke:rgb(0,0,0);stroke-opacity:1;stroke-width:1;stroke-linecap:round;stroke-linejoin:round;fill:none;fill-opacity:1;text-anchor:start;opacity:1" x1="0" y1="0" x2="0" y2="-5"></line><text style="stroke:none;stroke-opacity:1;stroke-width:1;stroke-linecap:round;stroke-linejoin:round;fill:rgb(0,0,0);fill-opacity:1;text-anchor:start;opacity:1;font-family:Arial;font-size:12px" x="-8.3408203125" y="-9.536377402446128">3.6</text></g><g transform="translate(-226.0212766,0) rotate(270)" style="opacity:1"><line style="stroke:rgb(0,0,0);stroke-opacity:1;stroke-width:1;stroke-linecap:round;stroke-linejoin:round;fill:none;fill-opacity:1;text-anchor:start;opacity:1" x1="0" y1="0" x2="0" y2="-5"></line><text style="stroke:none;stroke-opacity:1;stroke-width:1;stroke-linecap:round;stroke-linejoin:round;fill:rgb(0,0,0);fill-opacity:1;text-anchor:start;opacity:1;font-family:Arial;font-size:12px" x="-8.3408203125" y="-9.536377402446128">3.8</text></g><g transform="translate(-195.74016733,-113.0106383) rotate(300)" style="opacity:1"><line style="stroke:rgb(0,0,0);stroke-opacity:1;stroke-width:1;stroke-linecap:round;stroke-linejoin:round;fill:none;fill-opacity:1;text-anchor:start;opacity:1" x1="0" y1="0" x2="0" y2="-5"></line><text style="stroke:none;stroke-opacity:1;stroke-width:1;stroke-linecap:round;stroke-linejoin:round;fill:rgb(0,0,0);fill-opacity:1;text-anchor:start;opacity:1;font-family:Arial;font-size:12px" x="-8.3408203125" y="-9.536377402446128">4.0</text></g><g transform="translate(-113.0106383,-195.74016733) rotate(330)" style="opacity:1"><line style="stroke:rgb(0,0,0);stroke-opacity:1;stroke-width:1;stroke-linecap:round;stroke-linejoin:round;fill:none;fill-opacity:1;text-anchor:start;opacity:1" x1="0" y1="0" x2="0" y2="-5"></line><text style="stroke:none;stroke-opacity:1;stroke-width:1;stroke-linecap:round;stroke-linejoin:round;fill:rgb(0,0,0);fill-opacity:1;text-anchor:start;opacity:1;font-family:Arial;font-size:12px" x="-8.3408203125" y="-9.536377402446128">4.2</text></g><g transform="translate(-0,-226.0212766) rotate(360)" style="opacity:1"><line style="stroke:rgb(0,0,0);stroke-opacity:1;stroke-width:1;stroke-linecap:round;stroke-linejoin:round;fill:none;fill-opacity:1;text-anchor:start;opacity:1" x1="0" y1="0" x2="0" y2="-5"></line><text style="stroke:none;stroke-opacity:1;stroke-width:1;stroke-linecap:round;stroke-linejoin:round;fill:rgb(0,0,0);fill-opacity:1;text-anchor:start;opacity:1;font-family:Arial;font-size:12px" x="-8.3408203125" y="-9.536377402446128">4.4</text></g></g></g></g></g><g transform="translate(0,0)" style="opacity:1"><g transform="translate(251.95035461,-180.26950355)" style="opacity:1"><g transform="translate(0,-48)" style="opacity:1"><text style="stroke:none;stroke-opacity:1;stroke-width:1;stroke-linecap:round;stroke-linejoin:round;fill:rgb(0,0,0);fill-opacity:1;text-anchor:start;opacity:1;font-family:Arial;font-size:14px" x="29" y="-7.377204426324983">Iris-setosa</text><rect style="stroke:none;stroke-opacity:1;stroke-width:1;stroke-linecap:round;stroke-linejoin:round;fill:rgb(195,195,244);fill-opacity:1;text-anchor:start;opacity:1" x="8" y="-20" width="16" height="16"></rect></g><g transform="translate(0,-24)" style="opacity:1"><text style="stroke:none;stroke-opacity:1;stroke-width:1;stroke-linecap:round;stroke-linejoin:round;fill:rgb(0,0,0);fill-opacity:1;text-anchor:start;opacity:1;font-family:Arial;font-size:14px" x="29" y="-7.377204426324983">Iris-versicolor</text><rect style="stroke:none;stroke-opacity:1;stroke-width:1;stroke-linecap:round;stroke-linejoin:round;fill:rgb(255,140,140);fill-opacity:1;text-anchor:start;opacity:1" x="8" y="-20" width="16" height="16"></rect></g><g transform="translate(0,0)" style="opacity:1"><text style="stroke:none;stroke-opacity:1;stroke-width:1;stroke-linecap:round;stroke-linejoin:round;fill:rgb(0,0,0);fill-opacity:1;text-anchor:start;opacity:1;font-family:Arial;font-size:14px" x="29" y="-7.377204426324983">Iris-virginica</text><rect style="stroke:none;stroke-opacity:1;stroke-width:1;stroke-linecap:round;stroke-linejoin:round;fill:rgb(178,235,242);fill-opacity:1;text-anchor:start;opacity:1" x="8" y="-20" width="16" height="16"></rect></g></g></g></g></g></svg>